<svg width="1414" height="210" viewBox="0 0 1414 210" fill="none" xmlns="http://www.w3.org/2000/svg">
<path d="M220.52 125.76C220.52 168.153 186.153 202.52 143.76 202.52C101.367 202.52 67 168.153 67 125.76C67 83.3665 101.367 49 143.76 49C186.153 49 220.52 83.3665 220.52 125.76ZM82.352 125.76C82.352 159.674 109.845 187.168 143.76 187.168C177.674 187.168 205.168 159.674 205.168 125.76C205.168 91.8452 177.674 64.352 143.76 64.352C109.845 64.352 82.352 91.8452 82.352 125.76Z" fill="#135E95"/>
<path d="M143.76 74.8257C143.727 74.858 143.691 74.8998 143.647 74.9471C141.954 76.7902 130.231 88.2813 99.6409 89.532C99.6396 90.7164 99.6504 91.8154 99.6699 92.9701C99.6797 93.5488 99.6894 94.1248 99.7052 94.6949C99.718 95.2588 99.7336 95.8199 99.7526 96.3779L99.7525 96.4078C99.7711 96.9688 99.7898 97.5238 99.8144 98.0791C99.8363 98.6343 99.8611 99.1864 99.8887 99.7385C99.9134 100.285 99.9441 100.825 99.9748 101.365L99.9746 101.392C100.008 101.93 100.039 102.464 100.076 102.996C100.109 103.53 100.149 104.061 100.189 104.593C100.228 105.121 100.268 105.647 100.313 106.169C100.356 106.689 100.402 107.208 100.45 107.725C100.485 108.102 100.519 108.476 100.556 108.851C100.585 109.159 100.616 109.468 100.65 109.774C100.676 110.035 100.705 110.297 100.734 110.558C100.748 110.695 100.762 110.831 100.78 110.968C100.828 111.404 100.877 111.838 100.929 112.271C100.984 112.735 101.042 113.198 101.099 113.658C101.111 113.747 101.122 113.833 101.134 113.922C101.18 114.267 101.224 114.608 101.27 114.947C101.307 115.217 101.342 115.484 101.383 115.752C101.504 116.613 101.632 117.459 101.765 118.3C101.826 118.686 101.887 119.069 101.951 119.449C102.026 119.901 102.102 120.346 102.181 120.789C102.186 120.824 102.192 120.857 102.198 120.893C102.276 121.326 102.352 121.757 102.434 122.185C102.498 122.541 102.565 122.895 102.635 123.245C102.69 123.548 102.751 123.848 102.813 124.145C102.833 124.249 102.853 124.356 102.874 124.46C102.938 124.772 103.002 125.081 103.066 125.39C103.136 125.723 103.206 126.049 103.276 126.376C103.355 126.73 103.434 127.08 103.513 127.428C103.603 127.838 103.697 128.242 103.793 128.646C103.802 128.681 103.811 128.72 103.82 128.756C103.913 129.154 104.01 129.546 104.106 129.938C104.208 130.351 104.311 130.761 104.416 131.165C104.522 131.572 104.627 131.976 104.735 132.374C104.841 132.776 104.949 133.174 105.061 133.566C105.166 133.943 105.272 134.315 105.38 134.686C105.392 134.731 105.406 134.775 105.418 134.82C105.524 135.182 105.629 135.539 105.738 135.895C105.852 136.273 105.967 136.647 106.084 137.022C106.087 137.031 106.09 137.039 106.093 137.051C106.21 137.42 106.325 137.788 106.445 138.154C106.562 138.519 106.683 138.885 106.806 139.247C106.809 139.256 106.812 139.265 106.815 139.277C106.935 139.631 107.056 139.982 107.176 140.332C107.179 140.338 107.182 140.344 107.182 140.35C107.305 140.707 107.432 141.057 107.558 141.408C107.684 141.762 107.814 142.113 107.943 142.46C108.102 142.888 108.261 143.31 108.422 143.729C108.525 143.991 108.625 144.253 108.728 144.511C108.857 144.838 108.987 145.159 109.116 145.477L109.169 145.602C109.29 145.902 109.416 146.203 109.54 146.497C109.675 146.824 109.814 147.145 109.955 147.466C110.241 148.126 110.529 148.774 110.823 149.411C110.956 149.702 111.092 149.987 111.227 150.273C111.368 150.573 111.51 150.868 111.654 151.162C111.757 151.379 111.863 151.593 111.969 151.807C112.073 152.021 112.179 152.229 112.288 152.441C112.37 152.607 112.456 152.771 112.541 152.937C112.689 153.226 112.836 153.511 112.983 153.794C113.284 154.359 113.588 154.915 113.891 155.462C114.042 155.736 114.195 156.006 114.348 156.274C114.502 156.542 114.655 156.81 114.809 157.071C115.23 157.791 115.655 158.493 116.086 159.178C116.213 159.383 116.343 159.585 116.473 159.788C116.659 160.079 116.845 160.368 117.034 160.653C117.181 160.876 117.329 161.1 117.479 161.32C118.285 162.516 119.1 163.656 119.919 164.736C120.081 164.951 120.241 165.159 120.403 165.367C120.787 165.861 121.171 166.344 121.559 166.817C121.692 166.984 121.83 167.148 121.966 167.311C122.093 167.463 122.22 167.615 122.348 167.764C122.495 167.94 122.643 168.112 122.788 168.282C123.128 168.672 123.465 169.053 123.805 169.425C123.92 169.556 124.038 169.684 124.154 169.81C124.52 170.208 124.887 170.596 125.254 170.974C125.384 171.111 125.514 171.245 125.644 171.376C126.501 172.249 127.348 173.063 128.185 173.822C128.339 173.963 128.496 174.103 128.649 174.24C129.454 174.955 130.244 175.623 131.017 176.243C131.262 176.44 131.508 176.634 131.751 176.822C131.771 176.836 131.792 176.851 131.813 176.869C131.958 176.98 132.103 177.093 132.248 177.2C133.115 177.859 133.956 178.456 134.761 178.996C134.895 179.086 135.028 179.176 135.161 179.262C135.425 179.438 135.685 179.605 135.943 179.767C136.189 179.922 136.429 180.071 136.662 180.215C136.674 180.22 136.686 180.229 136.698 180.235C136.932 180.376 137.16 180.513 137.382 180.644C137.767 180.868 138.14 181.081 138.499 181.278C138.6 181.332 138.698 181.385 138.798 181.439C139.45 181.792 140.054 182.097 140.605 182.36C140.772 182.438 140.934 182.516 141.088 182.587C141.548 182.797 141.963 182.976 142.324 183.123C142.434 183.171 142.538 183.213 142.638 183.252C142.861 183.339 143.056 183.417 143.228 183.48C143.267 183.495 143.305 183.507 143.341 183.519C143.379 183.534 143.415 183.548 143.451 183.561C143.848 183.705 144.061 183.765 144.061 183.765C145.861 182.807 147.589 181.795 149.246 180.729C159.713 174.006 167.385 165.248 172.992 155.678C173.006 155.651 173.021 155.627 173.033 155.601C185.094 134.968 187.546 110.587 187.631 94.7158C187.637 92.9587 187.619 91.3052 187.58 89.7734C156.339 88.2348 144.975 76.2162 143.76 74.8257Z" fill="#135E95"/>
<path d="M143.698 74.8918C143.72 74.8671 143.741 74.8448 143.76 74.8257L143.76 131.499H182.918C180.716 139.629 177.548 147.878 173.033 155.601C173.025 155.62 173.015 155.637 173.005 155.655C173 155.662 172.996 155.67 172.992 155.678C167.385 165.248 159.713 174.006 149.246 180.729C147.589 181.795 145.861 182.807 144.061 183.765C144.061 183.765 143.958 183.736 143.76 183.669L143.76 131.499H104.503C104.474 131.388 104.445 131.277 104.416 131.165C104.311 130.761 104.208 130.351 104.106 129.938L104.091 129.877C104 129.505 103.908 129.133 103.82 128.756C103.815 128.735 103.81 128.714 103.805 128.693C103.801 128.677 103.797 128.661 103.793 128.646C103.697 128.242 103.603 127.838 103.513 127.428C103.434 127.08 103.355 126.73 103.276 126.376C103.206 126.049 103.136 125.723 103.066 125.39C103.002 125.081 102.938 124.772 102.874 124.46C102.863 124.408 102.853 124.355 102.843 124.303C102.833 124.25 102.823 124.197 102.813 124.145C102.751 123.848 102.69 123.548 102.635 123.245C102.565 122.895 102.498 122.541 102.434 122.185C102.374 121.872 102.318 121.558 102.261 121.243C102.24 121.126 102.219 121.009 102.198 120.893C102.195 120.875 102.192 120.858 102.189 120.841C102.186 120.824 102.183 120.807 102.181 120.789C102.102 120.346 102.026 119.901 101.951 119.449C101.887 119.069 101.826 118.686 101.765 118.3C101.632 117.459 101.504 116.613 101.383 115.752C101.355 115.569 101.33 115.386 101.305 115.202C101.293 115.117 101.282 115.032 101.27 114.947C101.244 114.758 101.219 114.567 101.194 114.376C101.174 114.225 101.154 114.074 101.134 113.922L101.099 113.658C101.042 113.198 100.984 112.735 100.929 112.271C100.877 111.838 100.828 111.404 100.78 110.968C100.764 110.841 100.75 110.715 100.737 110.588L100.734 110.558L100.733 110.553C100.705 110.293 100.676 110.034 100.65 109.774C100.616 109.468 100.585 109.159 100.556 108.851C100.519 108.477 100.485 108.103 100.45 107.726L100.45 107.725C100.402 107.208 100.356 106.689 100.313 106.169C100.268 105.647 100.228 105.121 100.189 104.593C100.149 104.061 100.109 103.53 100.076 102.996C100.05 102.63 100.028 102.262 100.005 101.893C99.9953 101.727 99.9851 101.56 99.9746 101.392L99.9748 101.365C99.9441 100.825 99.9134 100.285 99.8887 99.7385C99.8611 99.1864 99.8363 98.6343 99.8144 98.0791C99.7898 97.5238 99.7711 96.9688 99.7525 96.4078L99.7526 96.3779C99.7336 95.8199 99.718 95.2588 99.7052 94.6949C99.6894 94.1248 99.6797 93.5488 99.6699 92.9701C99.6504 91.8154 99.6396 90.7164 99.6409 89.532C130.231 88.2813 141.954 76.7902 143.647 74.9471C143.665 74.9277 143.682 74.9091 143.698 74.8918Z" fill="#1C8ADB"/>
<path d="M265.002 106.911C265.002 110.518 263.863 113.269 261.586 115.162C259.309 117.056 256.072 118.002 251.876 118.002C247.68 118.002 244.43 117.056 242.128 115.162C239.85 113.269 238.712 110.518 238.712 106.911V91.1365H247.194V106.796C247.194 108.28 247.59 109.469 248.383 110.365C249.177 111.235 250.328 111.67 251.838 111.67C253.347 111.67 254.499 111.222 255.292 110.326C256.111 109.431 256.52 108.254 256.52 106.796V91.1365H265.002V106.911ZM270.682 91.1365H279.164V110.787H292.713V117.542H270.682V91.1365ZM309.531 97.8914V117.542H301.049V97.8914H292.375V91.1365H318.166V97.8914H309.531ZM347.093 99.2347C347.093 100.847 346.658 102.305 345.788 103.61C344.918 104.915 343.651 105.874 341.988 106.488L347.86 117.542H338.342L333.66 107.909H330.512V117.542H322.031V91.1365H338.188C340.082 91.1365 341.694 91.5075 343.024 92.2495C344.38 92.9659 345.391 93.951 346.056 95.2048C346.747 96.4329 347.093 97.7762 347.093 99.2347ZM338.457 99.5801C338.457 98.8892 338.227 98.3135 337.766 97.853C337.306 97.3924 336.743 97.1621 336.078 97.1621H330.512V102.036H336.078C336.743 102.036 337.306 101.806 337.766 101.346C338.227 100.859 338.457 100.271 338.457 99.5801ZM369.596 117.542L368.482 113.819H359.233L358.12 117.542H349.446L359.079 91.1365H368.943L378.576 117.542H369.596ZM360.998 107.909H366.717L363.954 98.5054H363.8L360.998 107.909ZM392.866 90.6759C396.243 90.6759 399.02 91.3668 401.194 92.7485C403.369 94.1045 404.482 96.1259 404.534 98.8125V99.273H396.589V99.1195C396.589 98.3519 396.307 97.7123 395.745 97.2005C395.182 96.6888 394.324 96.4329 393.173 96.4329C392.047 96.4329 391.177 96.5992 390.563 96.9319C389.975 97.2645 389.68 97.6739 389.68 98.16C389.68 98.8509 390.09 99.3626 390.909 99.6952C391.727 100.028 393.045 100.373 394.862 100.731C396.985 101.166 398.725 101.627 400.081 102.113C401.463 102.574 402.666 103.341 403.689 104.416C404.713 105.491 405.237 106.949 405.263 108.791C405.263 111.913 404.201 114.228 402.077 115.738C399.979 117.248 397.165 118.002 393.634 118.002C389.514 118.002 386.303 117.312 384 115.93C381.723 114.548 380.584 112.105 380.584 108.599H388.606C388.606 109.93 388.951 110.825 389.642 111.286C390.333 111.721 391.408 111.938 392.866 111.938C393.941 111.938 394.823 111.823 395.514 111.593C396.231 111.363 396.589 110.889 396.589 110.173C396.589 109.533 396.192 109.06 395.399 108.753C394.632 108.42 393.365 108.075 391.599 107.717C389.45 107.256 387.672 106.783 386.265 106.297C384.857 105.785 383.629 104.953 382.58 103.802C381.531 102.65 381.007 101.09 381.007 99.1195C381.007 96.2282 382.12 94.1045 384.346 92.7485C386.597 91.3668 389.437 90.6759 392.866 90.6759ZM427.28 117.542V107.525H417.954V117.542H409.472V91.1365H417.954V100.77H427.28V91.1365H435.762V117.542H427.28ZM441.827 117.542V91.1365H450.309V117.542H441.827ZM456.36 91.1365H479.196V97.4692H464.842V101.115H477.124V107.179H464.842V111.209H479.465V117.542H456.36V91.1365ZM484.058 91.1365H492.54V110.787H506.088V117.542H484.058V91.1365ZM521.094 91.1365C530.331 91.1365 534.95 95.5374 534.95 104.339C534.95 113.141 530.331 117.542 521.094 117.542H509.657V91.1365H521.094ZM518.139 111.209H520.941C524.497 111.209 526.276 109.303 526.276 105.491V103.188C526.276 99.3754 524.497 97.4692 520.941 97.4692H518.139V111.209ZM253.91 139.891V159.542H245.428V139.891H236.754V133.137H262.546V139.891H253.91ZM266.41 133.137H289.246V139.469H274.892V143.115H287.173V149.179H274.892V153.209H289.514V159.542H266.41V133.137ZM306.696 132.676C310.611 132.676 313.707 133.661 315.984 135.631C318.261 137.576 319.4 140.365 319.4 143.998H311.302C311.302 142.463 310.892 141.247 310.074 140.352C309.281 139.456 308.142 139.009 306.658 139.009C304.944 139.009 303.677 139.546 302.858 140.621C302.065 141.695 301.669 143.192 301.669 145.111V147.567C301.669 149.461 302.065 150.958 302.858 152.058C303.677 153.132 304.918 153.67 306.581 153.67C308.219 153.67 309.46 153.248 310.304 152.403C311.148 151.559 311.571 150.369 311.571 148.834H319.4C319.4 152.442 318.287 155.205 316.061 157.124C313.861 159.043 310.739 160.002 306.696 160.002C302.193 160.002 298.777 158.851 296.449 156.548C294.146 154.245 292.995 150.842 292.995 146.339C292.995 141.836 294.146 138.433 296.449 136.13C298.777 133.827 302.193 132.676 306.696 132.676ZM341.788 159.542V149.525H332.461V159.542H323.98V133.137H332.461V142.77H341.788V133.137H350.27V159.542H341.788ZM374.833 159.542L363.741 146.723V159.542H355.95V133.137H363.358L374.449 146.147V133.137H382.24V159.542H374.833ZM401.047 132.676C405.601 132.676 409.12 133.84 411.601 136.169C414.083 138.497 415.324 141.887 415.324 146.339C415.324 150.791 414.083 154.181 411.601 156.51C409.12 158.838 405.601 160.002 401.047 160.002C396.493 160.002 392.974 158.851 390.492 156.548C388.036 154.22 386.808 150.817 386.808 146.339C386.808 141.862 388.036 138.471 390.492 136.169C392.974 133.84 396.493 132.676 401.047 132.676ZM401.047 139.009C399.23 139.009 397.849 139.559 396.902 140.659C395.955 141.759 395.482 143.243 395.482 145.111V147.567C395.482 149.435 395.955 150.919 396.902 152.019C397.849 153.12 399.23 153.67 401.047 153.67C402.864 153.67 404.245 153.12 405.192 152.019C406.164 150.919 406.65 149.435 406.65 147.567V145.111C406.65 143.243 406.164 141.759 405.192 140.659C404.245 139.559 402.864 139.009 401.047 139.009ZM419.892 133.137H428.374V152.787H441.922V159.542H419.892V133.137ZM457.98 132.676C462.534 132.676 466.052 133.84 468.534 136.169C471.016 138.497 472.257 141.887 472.257 146.339C472.257 150.791 471.016 154.181 468.534 156.51C466.052 158.838 462.534 160.002 457.98 160.002C453.425 160.002 449.907 158.851 447.425 156.548C444.969 154.22 443.741 150.817 443.741 146.339C443.741 141.862 444.969 138.471 447.425 136.169C449.907 133.84 453.425 132.676 457.98 132.676ZM457.98 139.009C456.163 139.009 454.781 139.559 453.835 140.659C452.888 141.759 452.415 143.243 452.415 145.111V147.567C452.415 149.435 452.888 150.919 453.835 152.019C454.781 153.12 456.163 153.67 457.98 153.67C459.796 153.67 461.178 153.12 462.125 152.019C463.097 150.919 463.583 149.435 463.583 147.567V145.111C463.583 143.243 463.097 141.759 462.125 140.659C461.178 139.559 459.796 139.009 457.98 139.009ZM490.104 132.676C492.637 132.676 494.914 133.06 496.935 133.827C498.957 134.595 500.556 135.734 501.733 137.243C502.936 138.727 503.537 140.544 503.537 142.693H495.439C495.439 141.593 494.953 140.71 493.98 140.045C493.008 139.354 491.831 139.009 490.449 139.009C488.454 139.009 486.944 139.546 485.92 140.621C484.897 141.67 484.385 143.166 484.385 145.111V147.567C484.385 149.512 484.897 151.022 485.92 152.096C486.944 153.145 488.454 153.67 490.449 153.67C491.831 153.67 493.008 153.35 493.98 152.71C494.953 152.045 495.439 151.201 495.439 150.177H489.451V144.804H503.537V159.542H499.162L498.317 156.932C495.912 158.979 492.765 160.002 488.876 160.002C484.5 160.002 481.213 158.864 479.012 156.587C476.812 154.284 475.711 150.868 475.711 146.339C475.711 141.862 476.952 138.471 479.434 136.169C481.942 133.84 485.498 132.676 490.104 132.676ZM525.183 159.542H516.701V149.294L506.224 133.137H515.972L521.038 141.925H521.192L526.258 133.137H535.508L525.183 149.294V159.542ZM566.262 133.137C567.9 133.137 569.358 133.52 570.638 134.288C571.917 135.03 572.915 136.066 573.631 137.397C574.348 138.702 574.706 140.173 574.706 141.81V142.309C574.706 143.947 574.348 145.431 573.631 146.761C572.915 148.092 571.917 149.141 570.638 149.909C569.358 150.651 567.9 151.022 566.262 151.022H559.93V159.542H551.448V133.137H566.262ZM559.93 144.842H563.422C564.318 144.842 564.983 144.612 565.418 144.152C565.879 143.691 566.109 143.064 566.109 142.271V141.964C566.109 141.145 565.879 140.518 565.418 140.083C564.983 139.623 564.318 139.392 563.422 139.392H559.93V144.842ZM586.323 159.542L576.958 133.137H586.016L591.312 150.791H591.466L596.801 133.137H605.474L596.148 159.542H586.323ZM624.216 139.891V159.542H615.734V139.891H607.06V133.137H632.852V139.891H624.216ZM630.332 159.542V151.904H638.469V159.542H630.332ZM656.393 133.137H664.875V152.787H678.423V159.542H656.393V133.137ZM695.241 139.891V159.542H686.759V139.891H678.086V133.137H703.877V139.891H695.241ZM719.178 133.137C728.415 133.137 733.033 137.537 733.033 146.339C733.033 155.141 728.415 159.542 719.178 159.542H707.741V133.137H719.178ZM716.223 153.209H719.025C722.581 153.209 724.359 151.303 724.359 147.491V145.188C724.359 141.375 722.581 139.469 719.025 139.469H716.223V153.209ZM736.477 159.542V151.904H744.613V159.542H736.477Z" fill="#135E95"/>
<path d="M234.317 207.18C234.077 207.18 233.871 207.12 233.7 207C233.529 206.88 233.418 206.717 233.366 206.512C233.332 206.289 233.383 206.049 233.52 205.792L241.769 189.784V190.709H232.518C232.21 190.709 231.97 190.632 231.799 190.478C231.627 190.306 231.542 190.075 231.542 189.784C231.542 189.493 231.627 189.27 231.799 189.116C231.97 188.962 232.21 188.885 232.518 188.885H242.719C243.028 188.885 243.276 188.962 243.465 189.116C243.653 189.27 243.747 189.493 243.747 189.784C243.747 190.024 243.713 190.238 243.644 190.426C243.593 190.598 243.516 190.795 243.413 191.017L235.499 206.46C235.379 206.7 235.225 206.88 235.036 207C234.848 207.12 234.608 207.18 234.317 207.18ZM249.39 207C249.082 207 248.842 206.923 248.671 206.769C248.499 206.597 248.414 206.366 248.414 206.075C248.414 205.784 248.499 205.57 248.671 205.433C248.842 205.278 249.082 205.201 249.39 205.201H252.731V190.632H253.836L250.11 193.099C249.887 193.219 249.673 193.27 249.467 193.253C249.279 193.236 249.116 193.167 248.979 193.047C248.859 192.91 248.774 192.756 248.722 192.585C248.671 192.396 248.679 192.208 248.748 192.019C248.816 191.814 248.962 191.643 249.185 191.505L252.731 189.167C252.953 189.03 253.168 188.919 253.373 188.833C253.579 188.747 253.784 188.705 253.99 188.705C254.23 188.705 254.427 188.782 254.581 188.936C254.752 189.073 254.838 189.296 254.838 189.604V205.201H257.921C258.23 205.201 258.469 205.278 258.641 205.433C258.812 205.57 258.898 205.784 258.898 206.075C258.898 206.383 258.812 206.615 258.641 206.769C258.469 206.923 258.23 207 257.921 207H249.39ZM268.524 207.231C266.451 207.231 264.875 206.435 263.795 204.842C262.716 203.248 262.177 200.944 262.177 197.929C262.177 195.908 262.416 194.212 262.896 192.842C263.376 191.454 264.087 190.409 265.029 189.707C265.988 189.004 267.153 188.653 268.524 188.653C270.613 188.653 272.189 189.441 273.252 191.017C274.331 192.576 274.87 194.872 274.87 197.904C274.87 199.925 274.631 201.63 274.151 203.017C273.671 204.405 272.96 205.458 272.018 206.178C271.076 206.88 269.911 207.231 268.524 207.231ZM268.524 205.407C269.962 205.407 271.025 204.799 271.71 203.582C272.412 202.349 272.763 200.456 272.763 197.904C272.763 195.334 272.412 193.458 271.71 192.276C271.025 191.077 269.962 190.478 268.524 190.478C267.102 190.478 266.04 191.077 265.337 192.276C264.635 193.475 264.284 195.351 264.284 197.904C264.284 200.456 264.635 202.349 265.337 203.582C266.04 204.799 267.102 205.407 268.524 205.407ZM279.408 209.441C279.237 209.664 279.057 209.792 278.869 209.827C278.68 209.861 278.518 209.827 278.381 209.724C278.244 209.621 278.166 209.475 278.149 209.287C278.149 209.098 278.235 208.893 278.406 208.67C278.68 208.31 278.869 207.942 278.972 207.565C279.074 207.206 279.126 206.872 279.126 206.563L279.229 207.103C278.783 207.103 278.423 206.974 278.149 206.717C277.892 206.443 277.764 206.101 277.764 205.69C277.764 205.278 277.884 204.944 278.124 204.687C278.381 204.413 278.715 204.276 279.126 204.276C279.571 204.276 279.922 204.43 280.179 204.739C280.436 205.03 280.565 205.458 280.565 206.024C280.565 206.383 280.53 206.752 280.462 207.128C280.393 207.522 280.274 207.916 280.102 208.31C279.931 208.704 279.7 209.081 279.408 209.441ZM293.011 207.18C292.771 207.18 292.565 207.12 292.394 207C292.223 206.88 292.111 206.717 292.06 206.512C292.026 206.289 292.077 206.049 292.214 205.792L300.462 189.784V190.709H291.212C290.903 190.709 290.664 190.632 290.492 190.478C290.321 190.306 290.235 190.075 290.235 189.784C290.235 189.493 290.321 189.27 290.492 189.116C290.664 188.962 290.903 188.885 291.212 188.885H301.413C301.721 188.885 301.97 188.962 302.158 189.116C302.347 189.27 302.441 189.493 302.441 189.784C302.441 190.024 302.407 190.238 302.338 190.426C302.287 190.598 302.21 190.795 302.107 191.017L294.193 206.46C294.073 206.7 293.918 206.88 293.73 207C293.542 207.12 293.302 207.18 293.011 207.18ZM311.065 207.231C310.088 207.231 309.266 207.06 308.598 206.717C307.947 206.358 307.459 205.844 307.133 205.176C306.808 204.49 306.645 203.66 306.645 202.683V196.131H304.923C304.632 196.131 304.409 196.062 304.255 195.925C304.101 195.771 304.024 195.565 304.024 195.308C304.024 195.051 304.101 194.854 304.255 194.717C304.409 194.58 304.632 194.512 304.923 194.512H306.645V191.557C306.645 191.214 306.739 190.957 306.928 190.786C307.116 190.598 307.373 190.503 307.698 190.503C308.024 190.503 308.272 190.598 308.444 190.786C308.632 190.957 308.726 191.214 308.726 191.557V194.512H311.964C312.255 194.512 312.478 194.58 312.632 194.717C312.786 194.854 312.863 195.051 312.863 195.308C312.863 195.565 312.786 195.771 312.632 195.925C312.478 196.062 312.255 196.131 311.964 196.131H308.726V202.478C308.726 203.454 308.932 204.199 309.343 204.713C309.754 205.21 310.422 205.458 311.347 205.458C311.673 205.458 311.947 205.424 312.169 205.355C312.409 205.287 312.606 205.253 312.76 205.253C312.915 205.236 313.043 205.287 313.146 205.407C313.249 205.527 313.3 205.732 313.3 206.024C313.3 206.229 313.257 206.418 313.172 206.589C313.103 206.76 312.975 206.88 312.786 206.949C312.581 207.017 312.307 207.077 311.964 207.128C311.638 207.197 311.339 207.231 311.065 207.231ZM316.216 207.18C315.873 207.18 315.616 207.086 315.445 206.897C315.274 206.709 315.188 206.443 315.188 206.101V189.758C315.188 189.416 315.274 189.159 315.445 188.987C315.616 188.799 315.873 188.705 316.216 188.705C316.541 188.705 316.798 188.799 316.987 188.987C317.175 189.159 317.269 189.416 317.269 189.758V197.287H316.935C317.295 196.293 317.877 195.548 318.683 195.051C319.505 194.538 320.447 194.281 321.509 194.281C322.503 194.281 323.325 194.46 323.976 194.82C324.644 195.18 325.141 195.728 325.466 196.465C325.792 197.184 325.954 198.101 325.954 199.214V206.101C325.954 206.443 325.86 206.709 325.672 206.897C325.5 207.086 325.252 207.18 324.927 207.18C324.584 207.18 324.318 207.086 324.13 206.897C323.959 206.709 323.873 206.443 323.873 206.101V199.343C323.873 198.178 323.642 197.33 323.179 196.799C322.734 196.251 322.014 195.977 321.021 195.977C319.873 195.977 318.957 196.336 318.271 197.056C317.603 197.758 317.269 198.7 317.269 199.882V206.101C317.269 206.82 316.918 207.18 316.216 207.18ZM337.83 207.18C337.471 207.18 337.188 207.086 336.982 206.897C336.794 206.692 336.7 206.4 336.7 206.024V190.041C336.7 189.664 336.794 189.381 336.982 189.193C337.188 188.987 337.479 188.885 337.856 188.885H347.184C347.475 188.885 347.697 188.962 347.852 189.116C348.006 189.27 348.083 189.484 348.083 189.758C348.083 190.049 348.006 190.272 347.852 190.426C347.697 190.58 347.475 190.658 347.184 190.658H338.807V196.979H346.644C346.935 196.979 347.158 197.056 347.312 197.21C347.483 197.364 347.569 197.578 347.569 197.852C347.569 198.144 347.483 198.366 347.312 198.52C347.158 198.675 346.935 198.752 346.644 198.752H338.807V206.024C338.807 206.794 338.481 207.18 337.83 207.18ZM351.856 207C351.514 207 351.248 206.906 351.06 206.717C350.871 206.512 350.777 206.238 350.777 205.895V189.861C350.777 189.501 350.863 189.227 351.034 189.039C351.222 188.85 351.488 188.756 351.831 188.756C352.173 188.756 352.43 188.85 352.601 189.039C352.79 189.227 352.884 189.501 352.884 189.861V205.15H361.312C361.621 205.15 361.861 205.236 362.032 205.407C362.203 205.561 362.289 205.784 362.289 206.075C362.289 206.366 362.203 206.597 362.032 206.769C361.861 206.923 361.621 207 361.312 207H351.856ZM371.407 207.231C369.728 207.231 368.263 206.854 367.013 206.101C365.779 205.33 364.82 204.251 364.135 202.863C363.467 201.475 363.133 199.831 363.133 197.929C363.133 196.49 363.321 195.206 363.698 194.075C364.092 192.927 364.649 191.959 365.368 191.171C366.088 190.366 366.953 189.75 367.963 189.321C368.991 188.876 370.139 188.653 371.407 188.653C373.12 188.653 374.593 189.03 375.826 189.784C377.077 190.538 378.036 191.608 378.704 192.996C379.389 194.366 379.732 196.002 379.732 197.904C379.732 199.343 379.535 200.636 379.141 201.784C378.747 202.932 378.19 203.908 377.471 204.713C376.751 205.518 375.878 206.143 374.85 206.589C373.839 207.017 372.691 207.231 371.407 207.231ZM371.407 205.355C372.708 205.355 373.805 205.064 374.696 204.482C375.604 203.899 376.297 203.051 376.777 201.938C377.257 200.824 377.496 199.488 377.496 197.929C377.496 195.583 376.965 193.767 375.903 192.482C374.858 191.18 373.359 190.529 371.407 190.529C370.139 190.529 369.051 190.82 368.143 191.403C367.252 191.985 366.567 192.833 366.088 193.947C365.608 195.043 365.368 196.371 365.368 197.929C365.368 200.259 365.899 202.084 366.961 203.403C368.023 204.705 369.505 205.355 371.407 205.355ZM391.105 207.231C389.426 207.231 387.961 206.854 386.711 206.101C385.478 205.33 384.518 204.251 383.833 202.863C383.165 201.475 382.831 199.831 382.831 197.929C382.831 196.49 383.019 195.206 383.396 194.075C383.79 192.927 384.347 191.959 385.066 191.171C385.786 190.366 386.651 189.75 387.662 189.321C388.69 188.876 389.837 188.653 391.105 188.653C392.818 188.653 394.291 189.03 395.525 189.784C396.775 190.538 397.734 191.608 398.403 192.996C399.088 194.366 399.43 196.002 399.43 197.904C399.43 199.343 399.233 200.636 398.839 201.784C398.445 202.932 397.889 203.908 397.169 204.713C396.45 205.518 395.576 206.143 394.548 206.589C393.537 207.017 392.39 207.231 391.105 207.231ZM391.105 205.355C392.407 205.355 393.503 205.064 394.394 204.482C395.302 203.899 395.996 203.051 396.475 201.938C396.955 200.824 397.195 199.488 397.195 197.929C397.195 195.583 396.664 193.767 395.602 192.482C394.557 191.18 393.058 190.529 391.105 190.529C389.837 190.529 388.749 190.82 387.842 191.403C386.951 191.985 386.266 192.833 385.786 193.947C385.306 195.043 385.066 196.371 385.066 197.929C385.066 200.259 385.597 202.084 386.66 203.403C387.722 204.705 389.203 205.355 391.105 205.355ZM404.251 207.18C403.908 207.18 403.643 207.086 403.454 206.897C403.283 206.692 403.197 206.418 403.197 206.075V189.964C403.197 189.604 403.292 189.338 403.48 189.167C403.668 188.979 403.934 188.885 404.277 188.885H410.366C412.302 188.885 413.793 189.338 414.838 190.246C415.882 191.154 416.405 192.448 416.405 194.126C416.405 195.189 416.165 196.114 415.685 196.902C415.223 197.672 414.538 198.263 413.63 198.675C412.722 199.069 411.634 199.266 410.366 199.266L410.623 198.932H411.137C411.805 198.932 412.388 199.103 412.885 199.445C413.381 199.788 413.835 200.336 414.247 201.09L416.713 205.69C416.85 205.929 416.91 206.169 416.893 206.409C416.893 206.632 416.816 206.82 416.662 206.974C416.508 207.111 416.285 207.18 415.994 207.18C415.703 207.18 415.463 207.111 415.274 206.974C415.086 206.837 414.923 206.64 414.786 206.383L411.985 201.193C411.591 200.456 411.137 199.968 410.623 199.728C410.11 199.471 409.433 199.343 408.593 199.343H405.304V206.075C405.304 206.418 405.219 206.692 405.047 206.897C404.876 207.086 404.611 207.18 404.251 207.18ZM405.304 197.672H410.058C411.463 197.672 412.525 197.381 413.244 196.799C413.964 196.199 414.324 195.308 414.324 194.126C414.324 192.979 413.964 192.114 413.244 191.531C412.525 190.932 411.463 190.632 410.058 190.632H405.304V197.672ZM421.513 209.441C421.341 209.664 421.162 209.792 420.973 209.827C420.785 209.861 420.622 209.827 420.485 209.724C420.348 209.621 420.271 209.475 420.254 209.287C420.254 209.098 420.339 208.893 420.511 208.67C420.785 208.31 420.973 207.942 421.076 207.565C421.179 207.206 421.23 206.872 421.23 206.563L421.333 207.103C420.888 207.103 420.528 206.974 420.254 206.717C419.997 206.443 419.868 206.101 419.868 205.69C419.868 205.278 419.988 204.944 420.228 204.687C420.485 204.413 420.819 204.276 421.23 204.276C421.676 204.276 422.027 204.43 422.284 204.739C422.541 205.03 422.669 205.458 422.669 206.024C422.669 206.383 422.635 206.752 422.566 207.128C422.498 207.522 422.378 207.916 422.207 208.31C422.035 208.704 421.804 209.081 421.513 209.441ZM438.532 207.18C438.207 207.18 437.95 207.086 437.762 206.897C437.573 206.692 437.479 206.418 437.479 206.075V190.709H431.697C431.389 190.709 431.149 190.623 430.978 190.452C430.807 190.281 430.721 190.058 430.721 189.784C430.721 189.493 430.807 189.27 430.978 189.116C431.149 188.962 431.389 188.885 431.697 188.885H445.393C445.702 188.885 445.941 188.962 446.113 189.116C446.284 189.27 446.37 189.493 446.37 189.784C446.37 190.075 446.284 190.306 446.113 190.478C445.941 190.632 445.702 190.709 445.393 190.709H439.612V206.075C439.612 206.418 439.517 206.692 439.329 206.897C439.158 207.086 438.892 207.18 438.532 207.18ZM454.968 207.231C453.289 207.231 451.824 206.854 450.574 206.101C449.34 205.33 448.381 204.251 447.696 202.863C447.028 201.475 446.694 199.831 446.694 197.929C446.694 196.49 446.882 195.206 447.259 194.075C447.653 192.927 448.21 191.959 448.929 191.171C449.649 190.366 450.514 189.75 451.525 189.321C452.552 188.876 453.7 188.653 454.968 188.653C456.681 188.653 458.154 189.03 459.387 189.784C460.638 190.538 461.597 191.608 462.265 192.996C462.951 194.366 463.293 196.002 463.293 197.904C463.293 199.343 463.096 200.636 462.702 201.784C462.308 202.932 461.751 203.908 461.032 204.713C460.313 205.518 459.439 206.143 458.411 206.589C457.4 207.017 456.253 207.231 454.968 207.231ZM454.968 205.355C456.27 205.355 457.366 205.064 458.257 204.482C459.165 203.899 459.859 203.051 460.338 201.938C460.818 200.824 461.058 199.488 461.058 197.929C461.058 195.583 460.527 193.767 459.465 192.482C458.42 191.18 456.921 190.529 454.968 190.529C453.7 190.529 452.612 190.82 451.704 191.403C450.814 191.985 450.128 192.833 449.649 193.947C449.169 195.043 448.929 196.371 448.929 197.929C448.929 200.259 449.46 202.084 450.522 203.403C451.585 204.705 453.066 205.355 454.968 205.355ZM472.466 207.18C472.158 207.18 471.909 207.103 471.721 206.949C471.532 206.777 471.378 206.529 471.258 206.203L465.58 189.989C465.46 189.63 465.485 189.33 465.657 189.09C465.845 188.833 466.136 188.705 466.53 188.705C466.822 188.705 467.053 188.782 467.224 188.936C467.395 189.073 467.541 189.296 467.661 189.604L472.98 205.201H472.081L477.502 189.681C477.622 189.356 477.768 189.116 477.939 188.962C478.111 188.79 478.342 188.705 478.633 188.705C478.907 188.705 479.121 188.79 479.275 188.962C479.447 189.116 479.592 189.356 479.712 189.681L485.057 205.201H484.26L489.631 189.604C489.716 189.313 489.845 189.09 490.016 188.936C490.205 188.782 490.444 188.705 490.736 188.705C491.095 188.705 491.361 188.825 491.532 189.064C491.704 189.304 491.721 189.613 491.584 189.989L485.879 206.203C485.759 206.529 485.605 206.777 485.417 206.949C485.245 207.103 484.997 207.18 484.671 207.18C484.363 207.18 484.115 207.103 483.926 206.949C483.755 206.777 483.601 206.529 483.464 206.203L478.299 191.326H478.864L473.648 206.203C473.528 206.529 473.382 206.777 473.211 206.949C473.04 207.103 472.791 207.18 472.466 207.18ZM496.095 207C495.719 207 495.427 206.906 495.222 206.717C495.033 206.512 494.939 206.221 494.939 205.844V190.041C494.939 189.664 495.033 189.381 495.222 189.193C495.427 188.987 495.719 188.885 496.095 188.885H505.654C505.945 188.885 506.168 188.962 506.322 189.116C506.476 189.27 506.554 189.484 506.554 189.758C506.554 190.049 506.476 190.272 506.322 190.426C506.168 190.58 505.945 190.658 505.654 190.658H496.995V196.927H505.115C505.406 196.927 505.629 197.004 505.783 197.159C505.937 197.296 506.014 197.51 506.014 197.801C506.014 198.092 505.937 198.315 505.783 198.469C505.629 198.623 505.406 198.7 505.115 198.7H496.995V205.227H505.654C505.945 205.227 506.168 205.304 506.322 205.458C506.476 205.612 506.554 205.827 506.554 206.101C506.554 206.392 506.476 206.615 506.322 206.769C506.168 206.923 505.945 207 505.654 207H496.095ZM510.973 207.18C510.631 207.18 510.365 207.086 510.177 206.897C510.006 206.692 509.92 206.418 509.92 206.075V189.964C509.92 189.604 510.014 189.338 510.203 189.167C510.391 188.979 510.657 188.885 510.999 188.885H517.089C519.025 188.885 520.515 189.338 521.56 190.246C522.605 191.154 523.128 192.448 523.128 194.126C523.128 195.189 522.888 196.114 522.408 196.902C521.946 197.672 521.26 198.263 520.352 198.675C519.444 199.069 518.357 199.266 517.089 199.266L517.346 198.932H517.86C518.528 198.932 519.11 199.103 519.607 199.445C520.104 199.788 520.558 200.336 520.969 201.09L523.436 205.69C523.573 205.929 523.633 206.169 523.616 206.409C523.616 206.632 523.539 206.82 523.384 206.974C523.23 207.111 523.008 207.18 522.716 207.18C522.425 207.18 522.185 207.111 521.997 206.974C521.808 206.837 521.646 206.64 521.509 206.383L518.708 201.193C518.314 200.456 517.86 199.968 517.346 199.728C516.832 199.471 516.155 199.343 515.316 199.343H512.027V206.075C512.027 206.418 511.941 206.692 511.77 206.897C511.599 207.086 511.333 207.18 510.973 207.18ZM512.027 197.672H516.781C518.185 197.672 519.247 197.381 519.967 196.799C520.686 196.199 521.046 195.308 521.046 194.126C521.046 192.979 520.686 192.114 519.967 191.531C519.247 190.932 518.185 190.632 516.781 190.632H512.027V197.672ZM527.041 201.013C526.785 201.013 526.57 200.936 526.399 200.782C526.228 200.61 526.142 200.405 526.142 200.165C526.142 199.908 526.228 199.702 526.399 199.548C526.57 199.377 526.785 199.291 527.041 199.291H532.823C533.063 199.291 533.268 199.377 533.44 199.548C533.611 199.702 533.697 199.908 533.697 200.165C533.697 200.405 533.611 200.61 533.44 200.782C533.268 200.936 533.063 201.013 532.823 201.013H527.041ZM536.736 207.18C536.462 207.18 536.239 207.12 536.068 207C535.914 206.863 535.819 206.692 535.785 206.486C535.768 206.263 535.819 206.015 535.939 205.741L543.006 189.655C543.16 189.313 543.34 189.073 543.545 188.936C543.768 188.782 544.008 188.705 544.265 188.705C544.522 188.705 544.753 188.782 544.958 188.936C545.181 189.073 545.361 189.313 545.498 189.655L552.59 205.741C552.727 206.015 552.778 206.263 552.744 206.486C552.727 206.709 552.641 206.88 552.487 207C552.333 207.12 552.119 207.18 551.845 207.18C551.537 207.18 551.288 207.103 551.1 206.949C550.911 206.777 550.757 206.537 550.637 206.229L548.736 201.835L549.764 202.375H538.714L539.768 201.835L537.892 206.229C537.738 206.555 537.575 206.794 537.404 206.949C537.233 207.103 537.01 207.18 536.736 207.18ZM544.239 191.351L540.102 201.09L539.485 200.602H548.993L548.427 201.09L544.29 191.351H544.239ZM557.294 209.441C557.122 209.664 556.942 209.792 556.754 209.827C556.566 209.861 556.403 209.827 556.266 209.724C556.129 209.621 556.052 209.475 556.035 209.287C556.035 209.098 556.12 208.893 556.291 208.67C556.566 208.31 556.754 207.942 556.857 207.565C556.96 207.206 557.011 206.872 557.011 206.563L557.114 207.103C556.668 207.103 556.309 206.974 556.035 206.717C555.778 206.443 555.649 206.101 555.649 205.69C555.649 205.278 555.769 204.944 556.009 204.687C556.266 204.413 556.6 204.276 557.011 204.276C557.456 204.276 557.808 204.43 558.064 204.739C558.321 205.03 558.45 205.458 558.45 206.024C558.45 206.383 558.416 206.752 558.347 207.128C558.279 207.522 558.159 207.916 557.987 208.31C557.816 208.704 557.585 209.081 557.294 209.441ZM569.868 207.18C569.525 207.18 569.26 207.086 569.071 206.897C568.9 206.692 568.814 206.418 568.814 206.075V189.964C568.814 189.604 568.909 189.338 569.097 189.167C569.285 188.979 569.551 188.885 569.894 188.885H575.983C577.919 188.885 579.41 189.364 580.454 190.323C581.499 191.266 582.022 192.602 582.022 194.332C582.022 196.045 581.499 197.381 580.454 198.341C579.41 199.3 577.919 199.78 575.983 199.78H570.921V206.075C570.921 206.418 570.836 206.692 570.664 206.897C570.493 207.086 570.228 207.18 569.868 207.18ZM570.921 198.006H575.726C577.114 198.006 578.159 197.698 578.861 197.081C579.581 196.448 579.941 195.531 579.941 194.332C579.941 193.116 579.581 192.199 578.861 191.583C578.159 190.949 577.114 190.632 575.726 190.632H570.921V198.006ZM586.154 207C585.811 207 585.546 206.906 585.358 206.717C585.169 206.512 585.075 206.238 585.075 205.895V189.861C585.075 189.501 585.161 189.227 585.332 189.039C585.52 188.85 585.786 188.756 586.128 188.756C586.471 188.756 586.728 188.85 586.899 189.039C587.088 189.227 587.182 189.501 587.182 189.861V205.15H595.61C595.918 205.15 596.158 205.236 596.33 205.407C596.501 205.561 596.587 205.784 596.587 206.075C596.587 206.366 596.501 206.597 596.33 206.769C596.158 206.923 595.918 207 595.61 207H586.154ZM605.704 207.231C604.026 207.231 602.561 206.854 601.31 206.101C600.077 205.33 599.118 204.251 598.432 202.863C597.764 201.475 597.43 199.831 597.43 197.929C597.43 196.49 597.619 195.206 597.996 194.075C598.39 192.927 598.946 191.959 599.666 191.171C600.385 190.366 601.25 189.75 602.261 189.321C603.289 188.876 604.437 188.653 605.704 188.653C607.417 188.653 608.891 189.03 610.124 189.784C611.375 190.538 612.334 191.608 613.002 192.996C613.687 194.366 614.03 196.002 614.03 197.904C614.03 199.343 613.833 200.636 613.439 201.784C613.045 202.932 612.488 203.908 611.769 204.713C611.049 205.518 610.175 206.143 609.148 206.589C608.137 207.017 606.989 207.231 605.704 207.231ZM605.704 205.355C607.006 205.355 608.103 205.064 608.993 204.482C609.901 203.899 610.595 203.051 611.075 201.938C611.554 200.824 611.794 199.488 611.794 197.929C611.794 195.583 611.263 193.767 610.201 192.482C609.156 191.18 607.657 190.529 605.704 190.529C604.437 190.529 603.349 190.82 602.441 191.403C601.55 191.985 600.865 192.833 600.385 193.947C599.906 195.043 599.666 196.371 599.666 197.929C599.666 200.259 600.197 202.084 601.259 203.403C602.321 204.705 603.803 205.355 605.704 205.355ZM622.166 207.18C621.841 207.18 621.584 207.086 621.396 206.897C621.207 206.692 621.113 206.418 621.113 206.075V190.709H615.331C615.023 190.709 614.783 190.623 614.612 190.452C614.441 190.281 614.355 190.058 614.355 189.784C614.355 189.493 614.441 189.27 614.612 189.116C614.783 188.962 615.023 188.885 615.331 188.885H629.027C629.336 188.885 629.575 188.962 629.747 189.116C629.918 189.27 630.004 189.493 630.004 189.784C630.004 190.075 629.918 190.306 629.747 190.478C629.575 190.632 629.336 190.709 629.027 190.709H623.246V206.075C623.246 206.418 623.151 206.692 622.963 206.897C622.792 207.086 622.526 207.18 622.166 207.18ZM638.364 207.18C638.09 207.18 637.868 207.12 637.696 207C637.542 206.863 637.448 206.692 637.414 206.486C637.397 206.263 637.448 206.015 637.568 205.741L644.634 189.655C644.788 189.313 644.968 189.073 645.174 188.936C645.396 188.782 645.636 188.705 645.893 188.705C646.15 188.705 646.381 188.782 646.587 188.936C646.81 189.073 646.99 189.313 647.127 189.655L654.219 205.741C654.356 206.015 654.407 206.263 654.373 206.486C654.356 206.709 654.27 206.88 654.116 207C653.962 207.12 653.748 207.18 653.473 207.18C653.165 207.18 652.917 207.103 652.728 206.949C652.54 206.777 652.386 206.537 652.266 206.229L650.364 201.835L651.392 202.375H640.343L641.396 201.835L639.521 206.229C639.367 206.555 639.204 206.794 639.032 206.949C638.861 207.103 638.638 207.18 638.364 207.18ZM645.868 191.351L641.731 201.09L641.114 200.602H650.621L650.056 201.09L645.919 191.351H645.868ZM657.327 201.013C657.07 201.013 656.856 200.936 656.684 200.782C656.513 200.61 656.427 200.405 656.427 200.165C656.427 199.908 656.513 199.702 656.684 199.548C656.856 199.377 657.07 199.291 657.327 199.291H663.108C663.348 199.291 663.554 199.377 663.725 199.548C663.896 199.702 663.982 199.908 663.982 200.165C663.982 200.405 663.896 200.61 663.725 200.782C663.554 200.936 663.348 201.013 663.108 201.013H657.327ZM676.389 207.18C676.063 207.18 675.806 207.086 675.618 206.897C675.429 206.709 675.335 206.443 675.335 206.101V203.12H667.96C667.618 203.12 667.344 203.043 667.138 202.889C666.95 202.717 666.856 202.478 666.856 202.169C666.856 201.981 666.898 201.792 666.984 201.604C667.07 201.398 667.224 201.141 667.447 200.833L675.284 189.424C675.438 189.184 675.609 189.004 675.798 188.885C675.986 188.765 676.209 188.705 676.466 188.705C676.74 188.705 676.971 188.79 677.16 188.962C677.365 189.133 677.468 189.407 677.468 189.784V201.321H679.344C679.669 201.321 679.918 201.398 680.089 201.553C680.26 201.707 680.346 201.929 680.346 202.221C680.346 202.512 680.26 202.735 680.089 202.889C679.918 203.043 679.669 203.12 679.344 203.12H677.468V206.101C677.468 206.443 677.374 206.709 677.185 206.897C676.997 207.086 676.731 207.18 676.389 207.18ZM675.335 201.321V191.351H675.952L668.757 201.887V201.321H675.335ZM688.764 207.231C686.691 207.231 685.115 206.435 684.036 204.842C682.957 203.248 682.417 200.944 682.417 197.929C682.417 195.908 682.657 194.212 683.137 192.842C683.616 191.454 684.327 190.409 685.269 189.707C686.229 189.004 687.393 188.653 688.764 188.653C690.854 188.653 692.43 189.441 693.492 191.017C694.571 192.576 695.111 194.872 695.111 197.904C695.111 199.925 694.871 201.63 694.391 203.017C693.912 204.405 693.201 205.458 692.259 206.178C691.316 206.88 690.151 207.231 688.764 207.231ZM688.764 205.407C690.203 205.407 691.265 204.799 691.95 203.582C692.653 202.349 693.004 200.456 693.004 197.904C693.004 195.334 692.653 193.458 691.95 192.276C691.265 191.077 690.203 190.478 688.764 190.478C687.342 190.478 686.28 191.077 685.578 192.276C684.875 193.475 684.524 195.351 684.524 197.904C684.524 200.456 684.875 202.349 685.578 203.582C686.28 204.799 687.342 205.407 688.764 205.407ZM699.649 209.441C699.478 209.664 699.298 209.792 699.109 209.827C698.921 209.861 698.758 209.827 698.621 209.724C698.484 209.621 698.407 209.475 698.39 209.287C698.39 209.098 698.475 208.893 698.647 208.67C698.921 208.31 699.109 207.942 699.212 207.565C699.315 207.206 699.366 206.872 699.366 206.563L699.469 207.103C699.024 207.103 698.664 206.974 698.39 206.717C698.133 206.443 698.004 206.101 698.004 205.69C698.004 205.278 698.124 204.944 698.364 204.687C698.621 204.413 698.955 204.276 699.366 204.276C699.812 204.276 700.163 204.43 700.42 204.739C700.677 205.03 700.805 205.458 700.805 206.024C700.805 206.383 700.771 206.752 700.702 207.128C700.634 207.522 700.514 207.916 700.343 208.31C700.171 208.704 699.94 209.081 699.649 209.441ZM712.223 207.18C711.881 207.18 711.615 207.086 711.427 206.897C711.255 206.692 711.17 206.418 711.17 206.075V189.81C711.17 189.45 711.255 189.176 711.427 188.987C711.615 188.799 711.881 188.705 712.223 188.705C712.566 188.705 712.823 188.799 712.994 188.987C713.182 189.176 713.277 189.45 713.277 189.81V206.075C713.277 206.418 713.191 206.692 713.02 206.897C712.848 207.086 712.583 207.18 712.223 207.18ZM718.103 201.013C717.846 201.013 717.632 200.936 717.461 200.782C717.29 200.61 717.204 200.405 717.204 200.165C717.204 199.908 717.29 199.702 717.461 199.548C717.632 199.377 717.846 199.291 718.103 199.291H723.885C724.125 199.291 724.33 199.377 724.501 199.548C724.673 199.702 724.758 199.908 724.758 200.165C724.758 200.405 724.673 200.61 724.501 200.782C724.33 200.936 724.125 201.013 723.885 201.013H718.103ZM732.979 207.18C732.654 207.18 732.397 207.086 732.208 206.897C732.02 206.692 731.926 206.418 731.926 206.075V190.709H726.144C725.836 190.709 725.596 190.623 725.425 190.452C725.253 190.281 725.168 190.058 725.168 189.784C725.168 189.493 725.253 189.27 725.425 189.116C725.596 188.962 725.836 188.885 726.144 188.885H739.84C740.148 188.885 740.388 188.962 740.559 189.116C740.731 189.27 740.816 189.493 740.816 189.784C740.816 190.075 740.731 190.306 740.559 190.478C740.388 190.632 740.148 190.709 739.84 190.709H734.058V206.075C734.058 206.418 733.964 206.692 733.776 206.897C733.604 207.086 733.339 207.18 732.979 207.18ZM743.991 207.18C743.649 207.18 743.383 207.086 743.195 206.897C743.024 206.692 742.938 206.418 742.938 206.075V189.81C742.938 189.45 743.024 189.176 743.195 188.987C743.383 188.799 743.649 188.705 743.991 188.705C744.334 188.705 744.591 188.799 744.762 188.987C744.951 189.176 745.045 189.45 745.045 189.81V196.902H755.914V189.81C755.914 189.45 756 189.176 756.171 188.987C756.36 188.799 756.625 188.705 756.968 188.705C757.31 188.705 757.567 188.799 757.739 188.987C757.927 189.176 758.021 189.45 758.021 189.81V206.075C758.021 206.418 757.927 206.692 757.739 206.897C757.567 207.086 757.31 207.18 756.968 207.18C756.625 207.18 756.36 207.086 756.171 206.897C756 206.692 755.914 206.418 755.914 206.075V198.726H745.045V206.075C745.045 206.418 744.959 206.692 744.788 206.897C744.617 207.086 744.351 207.18 743.991 207.18ZM769.629 207.231C768.43 207.231 767.377 207.077 766.469 206.769C765.578 206.443 764.824 205.972 764.207 205.355C763.591 204.722 763.128 203.942 762.82 203.017C762.511 202.092 762.357 201.03 762.357 199.831V189.784C762.357 189.424 762.443 189.159 762.614 188.987C762.803 188.799 763.068 188.705 763.411 188.705C763.753 188.705 764.01 188.799 764.182 188.987C764.37 189.159 764.464 189.424 764.464 189.784V199.728C764.464 201.612 764.901 203.026 765.775 203.968C766.648 204.893 767.933 205.355 769.629 205.355C771.325 205.355 772.601 204.893 773.458 203.968C774.314 203.026 774.743 201.612 774.743 199.728V189.784C774.743 189.424 774.837 189.159 775.025 188.987C775.214 188.799 775.479 188.705 775.822 188.705C776.147 188.705 776.396 188.799 776.567 188.987C776.755 189.159 776.85 189.424 776.85 189.784V199.831C776.85 201.424 776.576 202.777 776.027 203.891C775.496 205.004 774.691 205.844 773.612 206.409C772.533 206.957 771.205 207.231 769.629 207.231ZM782.208 207.18C781.9 207.18 781.66 207.094 781.489 206.923C781.317 206.734 781.232 206.478 781.232 206.152V189.732C781.232 189.39 781.317 189.133 781.489 188.962C781.66 188.79 781.9 188.705 782.208 188.705C782.482 188.705 782.696 188.765 782.851 188.885C783.022 188.987 783.176 189.167 783.313 189.424L790.354 202.683H789.583L796.598 189.424C796.735 189.167 796.88 188.987 797.035 188.885C797.189 188.765 797.412 188.705 797.703 188.705C797.994 188.705 798.225 188.79 798.397 188.962C798.568 189.133 798.654 189.39 798.654 189.732V206.152C798.654 206.478 798.568 206.734 798.397 206.923C798.242 207.094 798.003 207.18 797.677 207.18C797.369 207.18 797.129 207.094 796.958 206.923C796.786 206.734 796.701 206.478 796.701 206.152V191.711H797.317L790.893 203.762C790.773 203.985 790.645 204.148 790.508 204.251C790.388 204.336 790.208 204.379 789.968 204.379C789.729 204.379 789.54 204.328 789.403 204.225C789.266 204.122 789.146 203.968 789.043 203.762L782.542 191.685H783.159V206.152C783.159 206.478 783.073 206.734 782.902 206.923C782.748 207.094 782.517 207.18 782.208 207.18ZM804.113 209.441C803.942 209.664 803.762 209.792 803.573 209.827C803.385 209.861 803.222 209.827 803.085 209.724C802.948 209.621 802.871 209.475 802.854 209.287C802.854 209.098 802.94 208.893 803.111 208.67C803.385 208.31 803.573 207.942 803.676 207.565C803.779 207.206 803.83 206.872 803.83 206.563L803.933 207.103C803.488 207.103 803.128 206.974 802.854 206.717C802.597 206.443 802.469 206.101 802.469 205.69C802.469 205.278 802.588 204.944 802.828 204.687C803.085 204.413 803.419 204.276 803.83 204.276C804.276 204.276 804.627 204.43 804.884 204.739C805.141 205.03 805.269 205.458 805.269 206.024C805.269 206.383 805.235 206.752 805.167 207.128C805.098 207.522 804.978 207.916 804.807 208.31C804.636 208.704 804.404 209.081 804.113 209.441ZM821.492 207.231C820.687 207.231 819.899 207.163 819.128 207.026C818.357 206.889 817.638 206.692 816.97 206.435C816.319 206.178 815.728 205.852 815.197 205.458C814.991 205.304 814.846 205.133 814.76 204.944C814.692 204.739 814.674 204.542 814.709 204.353C814.76 204.148 814.846 203.976 814.966 203.839C815.103 203.702 815.265 203.625 815.454 203.608C815.642 203.591 815.848 203.651 816.071 203.788C816.841 204.336 817.664 204.739 818.537 204.996C819.411 205.236 820.396 205.355 821.492 205.355C823.034 205.355 824.173 205.073 824.91 204.508C825.664 203.925 826.04 203.163 826.04 202.221C826.04 201.45 825.766 200.85 825.218 200.422C824.687 199.977 823.788 199.625 822.52 199.368L819.848 198.829C818.238 198.486 817.03 197.929 816.225 197.159C815.437 196.371 815.043 195.326 815.043 194.024C815.043 193.219 815.205 192.49 815.531 191.84C815.856 191.171 816.31 190.606 816.893 190.144C817.475 189.664 818.169 189.296 818.974 189.039C819.779 188.782 820.67 188.653 821.647 188.653C822.726 188.653 823.728 188.807 824.653 189.116C825.595 189.407 826.443 189.852 827.197 190.452C827.385 190.606 827.514 190.786 827.582 190.992C827.651 191.18 827.659 191.368 827.608 191.557C827.557 191.728 827.462 191.874 827.325 191.994C827.205 192.114 827.043 192.182 826.837 192.199C826.649 192.216 826.434 192.148 826.195 191.994C825.509 191.48 824.799 191.111 824.062 190.889C823.325 190.649 822.512 190.529 821.621 190.529C820.713 190.529 819.925 190.666 819.257 190.94C818.606 191.214 818.092 191.617 817.715 192.148C817.355 192.662 817.175 193.261 817.175 193.947C817.175 194.769 817.424 195.42 817.921 195.899C818.435 196.379 819.265 196.73 820.413 196.953L823.085 197.518C824.816 197.878 826.092 198.426 826.914 199.163C827.754 199.882 828.173 200.867 828.173 202.118C828.173 202.872 828.019 203.565 827.711 204.199C827.402 204.833 826.957 205.381 826.375 205.844C825.792 206.289 825.09 206.632 824.267 206.872C823.445 207.111 822.52 207.231 821.492 207.231ZM832.599 207C832.222 207 831.931 206.906 831.725 206.717C831.537 206.512 831.443 206.221 831.443 205.844V190.041C831.443 189.664 831.537 189.381 831.725 189.193C831.931 188.987 832.222 188.885 832.599 188.885H842.158C842.449 188.885 842.672 188.962 842.826 189.116C842.98 189.27 843.057 189.484 843.057 189.758C843.057 190.049 842.98 190.272 842.826 190.426C842.672 190.58 842.449 190.658 842.158 190.658H833.498V196.927H841.618C841.909 196.927 842.132 197.004 842.286 197.159C842.44 197.296 842.517 197.51 842.517 197.801C842.517 198.092 842.44 198.315 842.286 198.469C842.132 198.623 841.909 198.7 841.618 198.7H833.498V205.227H842.158C842.449 205.227 842.672 205.304 842.826 205.458C842.98 205.612 843.057 205.827 843.057 206.101C843.057 206.392 842.98 206.615 842.826 206.769C842.672 206.923 842.449 207 842.158 207H832.599ZM854.185 207.231C852.404 207.231 850.879 206.854 849.611 206.101C848.344 205.347 847.367 204.276 846.682 202.889C846.014 201.501 845.68 199.848 845.68 197.929C845.68 196.49 845.868 195.206 846.245 194.075C846.639 192.927 847.196 191.959 847.916 191.171C848.652 190.366 849.552 189.75 850.614 189.321C851.676 188.876 852.866 188.653 854.185 188.653C855.247 188.653 856.258 188.807 857.217 189.116C858.177 189.407 859.008 189.844 859.71 190.426C859.933 190.598 860.078 190.795 860.147 191.017C860.232 191.223 860.241 191.428 860.172 191.634C860.121 191.822 860.018 191.985 859.864 192.122C859.727 192.242 859.556 192.302 859.35 192.302C859.145 192.302 858.913 192.216 858.656 192.045C858.04 191.548 857.363 191.18 856.626 190.94C855.89 190.7 855.093 190.58 854.237 190.58C852.883 190.58 851.736 190.872 850.793 191.454C849.851 192.019 849.14 192.85 848.661 193.947C848.181 195.043 847.941 196.371 847.941 197.929C847.941 199.488 848.181 200.824 848.661 201.938C849.14 203.034 849.851 203.874 850.793 204.456C851.736 205.021 852.883 205.304 854.237 205.304C855.076 205.304 855.873 205.184 856.626 204.944C857.38 204.687 858.074 204.311 858.708 203.814C858.965 203.642 859.196 203.565 859.402 203.582C859.607 203.582 859.778 203.642 859.915 203.762C860.053 203.882 860.147 204.036 860.198 204.225C860.267 204.413 860.267 204.61 860.198 204.816C860.147 205.021 860.018 205.201 859.813 205.355C859.093 205.972 858.245 206.443 857.269 206.769C856.31 207.077 855.282 207.231 854.185 207.231ZM868.885 207.18C868.56 207.18 868.303 207.086 868.115 206.897C867.926 206.692 867.832 206.418 867.832 206.075V190.709H862.05C861.742 190.709 861.502 190.623 861.331 190.452C861.16 190.281 861.074 190.058 861.074 189.784C861.074 189.493 861.16 189.27 861.331 189.116C861.502 188.962 861.742 188.885 862.05 188.885H875.746C876.055 188.885 876.294 188.962 876.466 189.116C876.637 189.27 876.723 189.493 876.723 189.784C876.723 190.075 876.637 190.306 876.466 190.478C876.294 190.632 876.055 190.709 875.746 190.709H869.965V206.075C869.965 206.418 869.87 206.692 869.682 206.897C869.511 207.086 869.245 207.18 868.885 207.18ZM885.321 207.231C883.642 207.231 882.178 206.854 880.927 206.101C879.694 205.33 878.734 204.251 878.049 202.863C877.381 201.475 877.047 199.831 877.047 197.929C877.047 196.49 877.235 195.206 877.612 194.075C878.006 192.927 878.563 191.959 879.282 191.171C880.002 190.366 880.867 189.75 881.878 189.321C882.906 188.876 884.053 188.653 885.321 188.653C887.034 188.653 888.507 189.03 889.741 189.784C890.991 190.538 891.95 191.608 892.619 192.996C893.304 194.366 893.646 196.002 893.646 197.904C893.646 199.343 893.449 200.636 893.055 201.784C892.661 202.932 892.105 203.908 891.385 204.713C890.666 205.518 889.792 206.143 888.764 206.589C887.753 207.017 886.606 207.231 885.321 207.231ZM885.321 205.355C886.623 205.355 887.719 205.064 888.61 204.482C889.518 203.899 890.212 203.051 890.691 201.938C891.171 200.824 891.411 199.488 891.411 197.929C891.411 195.583 890.88 193.767 889.818 192.482C888.773 191.18 887.274 190.529 885.321 190.529C884.053 190.529 882.966 190.82 882.058 191.403C881.167 191.985 880.482 192.833 880.002 193.947C879.522 195.043 879.282 196.371 879.282 197.929C879.282 200.259 879.814 202.084 880.876 203.403C881.938 204.705 883.419 205.355 885.321 205.355ZM898.467 207.18C898.124 207.18 897.859 207.086 897.67 206.897C897.499 206.692 897.413 206.418 897.413 206.075V189.964C897.413 189.604 897.508 189.338 897.696 189.167C897.884 188.979 898.15 188.885 898.493 188.885H904.582C906.518 188.885 908.009 189.338 909.054 190.246C910.099 191.154 910.621 192.448 910.621 194.126C910.621 195.189 910.381 196.114 909.902 196.902C909.439 197.672 908.754 198.263 907.846 198.675C906.938 199.069 905.85 199.266 904.582 199.266L904.839 198.932H905.353C906.021 198.932 906.604 199.103 907.101 199.445C907.597 199.788 908.051 200.336 908.463 201.09L910.929 205.69C911.066 205.929 911.126 206.169 911.109 206.409C911.109 206.632 911.032 206.82 910.878 206.974C910.724 207.111 910.501 207.18 910.21 207.18C909.919 207.18 909.679 207.111 909.49 206.974C909.302 206.837 909.139 206.64 909.002 206.383L906.201 201.193C905.807 200.456 905.353 199.968 904.839 199.728C904.326 199.471 903.649 199.343 902.809 199.343H899.52V206.075C899.52 206.418 899.435 206.692 899.263 206.897C899.092 207.086 898.827 207.18 898.467 207.18ZM899.52 197.672H904.274C905.679 197.672 906.741 197.381 907.46 196.799C908.18 196.199 908.54 195.308 908.54 194.126C908.54 192.979 908.18 192.114 907.46 191.531C906.741 190.932 905.679 190.632 904.274 190.632H899.52V197.672ZM927.317 207.231C925.895 207.231 924.679 206.889 923.668 206.203C922.675 205.501 921.921 204.49 921.407 203.171C920.893 201.852 920.636 200.259 920.636 198.392C920.636 196.816 920.799 195.428 921.124 194.229C921.45 193.03 921.929 192.019 922.563 191.197C923.197 190.358 923.968 189.724 924.876 189.296C925.784 188.867 926.812 188.653 927.959 188.653C928.747 188.653 929.553 188.807 930.375 189.116C931.214 189.424 931.951 189.861 932.585 190.426C932.773 190.563 932.884 190.735 932.919 190.94C932.97 191.129 932.97 191.317 932.919 191.505C932.867 191.677 932.773 191.822 932.636 191.942C932.516 192.062 932.362 192.131 932.173 192.148C931.985 192.148 931.788 192.071 931.582 191.917C931 191.42 930.4 191.069 929.784 190.863C929.167 190.64 928.542 190.529 927.908 190.529C926.795 190.529 925.844 190.803 925.056 191.351C924.285 191.899 923.694 192.73 923.283 193.844C922.889 194.94 922.692 196.319 922.692 197.981V200.371H922.46C922.563 199.394 922.846 198.555 923.308 197.852C923.788 197.133 924.396 196.585 925.133 196.208C925.869 195.831 926.7 195.642 927.625 195.642C928.687 195.642 929.63 195.882 930.452 196.362C931.274 196.842 931.917 197.518 932.379 198.392C932.842 199.248 933.073 200.233 933.073 201.347C933.073 202.478 932.833 203.488 932.353 204.379C931.874 205.27 931.197 205.972 930.323 206.486C929.45 206.983 928.448 207.231 927.317 207.231ZM927.189 205.433C927.942 205.433 928.61 205.27 929.193 204.944C929.775 204.602 930.229 204.131 930.555 203.531C930.88 202.914 931.043 202.212 931.043 201.424C931.043 200.636 930.88 199.942 930.555 199.343C930.229 198.743 929.775 198.272 929.193 197.929C928.61 197.587 927.942 197.415 927.189 197.415C926.435 197.415 925.767 197.587 925.184 197.929C924.602 198.272 924.148 198.743 923.822 199.343C923.497 199.942 923.334 200.636 923.334 201.424C923.334 202.212 923.497 202.914 923.822 203.531C924.148 204.131 924.602 204.602 925.184 204.944C925.767 205.27 926.435 205.433 927.189 205.433ZM937.714 207C937.337 207 937.054 206.914 936.866 206.743C936.694 206.555 936.609 206.306 936.609 205.998C936.609 205.809 936.652 205.63 936.737 205.458C936.84 205.27 936.977 205.081 937.148 204.893L942.904 198.726C943.778 197.784 944.403 196.919 944.78 196.131C945.174 195.326 945.371 194.512 945.371 193.69C945.371 192.662 945.054 191.882 944.42 191.351C943.804 190.803 942.896 190.529 941.697 190.529C940.926 190.529 940.198 190.649 939.512 190.889C938.827 191.129 938.168 191.497 937.534 191.994C937.311 192.165 937.106 192.242 936.917 192.225C936.746 192.208 936.592 192.139 936.455 192.019C936.318 191.899 936.223 191.745 936.172 191.557C936.121 191.368 936.121 191.18 936.172 190.992C936.24 190.803 936.377 190.632 936.583 190.478C937.251 189.929 938.056 189.493 938.998 189.167C939.941 188.825 940.9 188.653 941.876 188.653C943.093 188.653 944.12 188.842 944.96 189.219C945.799 189.595 946.433 190.152 946.861 190.889C947.29 191.608 947.504 192.49 947.504 193.535C947.504 194.255 947.384 194.966 947.144 195.668C946.921 196.353 946.57 197.056 946.09 197.775C945.628 198.495 945.02 199.24 944.266 200.011L938.793 205.792V205.201H947.452C947.778 205.201 948.018 205.278 948.172 205.433C948.343 205.57 948.429 205.784 948.429 206.075C948.429 206.383 948.343 206.615 948.172 206.769C948.018 206.923 947.778 207 947.452 207H937.714ZM952.993 209.441C952.821 209.664 952.641 209.792 952.453 209.827C952.265 209.861 952.102 209.827 951.965 209.724C951.828 209.621 951.751 209.475 951.734 209.287C951.734 209.098 951.819 208.893 951.99 208.67C952.265 208.31 952.453 207.942 952.556 207.565C952.659 207.206 952.71 206.872 952.71 206.563L952.813 207.103C952.367 207.103 952.008 206.974 951.734 206.717C951.477 206.443 951.348 206.101 951.348 205.69C951.348 205.278 951.468 204.944 951.708 204.687C951.965 204.413 952.299 204.276 952.71 204.276C953.155 204.276 953.507 204.43 953.763 204.739C954.02 205.03 954.149 205.458 954.149 206.024C954.149 206.383 954.115 206.752 954.046 207.128C953.978 207.522 953.858 207.916 953.686 208.31C953.515 208.704 953.284 209.081 952.993 209.441ZM965.515 207.18C965.19 207.18 964.942 207.094 964.77 206.923C964.599 206.734 964.513 206.469 964.513 206.126V189.784C964.513 189.441 964.599 189.176 964.77 188.987C964.942 188.799 965.164 188.705 965.438 188.705C965.712 188.705 965.909 188.756 966.029 188.859C966.166 188.944 966.321 189.107 966.492 189.347L977.695 204.276H977.079V189.732C977.079 189.407 977.164 189.159 977.335 188.987C977.507 188.799 977.755 188.705 978.081 188.705C978.389 188.705 978.62 188.799 978.774 188.987C978.946 189.159 979.031 189.407 979.031 189.732V206.152C979.031 206.478 978.954 206.734 978.8 206.923C978.663 207.094 978.458 207.18 978.183 207.18C977.926 207.18 977.721 207.128 977.567 207.026C977.413 206.923 977.25 206.76 977.079 206.537L965.901 191.608H966.492V206.126C966.492 206.469 966.406 206.734 966.235 206.923C966.064 207.094 965.824 207.18 965.515 207.18ZM991.14 207.231C989.461 207.231 987.997 206.854 986.746 206.101C985.513 205.33 984.553 204.251 983.868 202.863C983.2 201.475 982.866 199.831 982.866 197.929C982.866 196.49 983.055 195.206 983.431 194.075C983.825 192.927 984.382 191.959 985.102 191.171C985.821 190.366 986.686 189.75 987.697 189.321C988.725 188.876 989.872 188.653 991.14 188.653C992.853 188.653 994.326 189.03 995.56 189.784C996.81 190.538 997.77 191.608 998.438 192.996C999.123 194.366 999.466 196.002 999.466 197.904C999.466 199.343 999.269 200.636 998.875 201.784C998.481 202.932 997.924 203.908 997.204 204.713C996.485 205.518 995.611 206.143 994.583 206.589C993.573 207.017 992.425 207.231 991.14 207.231ZM991.14 205.355C992.442 205.355 993.538 205.064 994.429 204.482C995.337 203.899 996.031 203.051 996.511 201.938C996.99 200.824 997.23 199.488 997.23 197.929C997.23 195.583 996.699 193.767 995.637 192.482C994.592 191.18 993.093 190.529 991.14 190.529C989.872 190.529 988.785 190.82 987.877 191.403C986.986 191.985 986.301 192.833 985.821 193.947C985.341 195.043 985.102 196.371 985.102 197.929C985.102 200.259 985.633 202.084 986.695 203.403C987.757 204.705 989.239 205.355 991.14 205.355ZM1004.29 207.18C1003.94 207.18 1003.68 207.086 1003.49 206.897C1003.32 206.692 1003.23 206.418 1003.23 206.075V189.81C1003.23 189.45 1003.32 189.176 1003.49 188.987C1003.68 188.799 1003.94 188.705 1004.29 188.705C1004.63 188.705 1004.89 188.799 1005.06 188.987C1005.25 189.176 1005.34 189.45 1005.34 189.81V206.075C1005.34 206.418 1005.25 206.692 1005.08 206.897C1004.91 207.086 1004.65 207.18 1004.29 207.18ZM1010.99 207C1010.61 207 1010.32 206.906 1010.11 206.717C1009.93 206.512 1009.83 206.221 1009.83 205.844V190.041C1009.83 189.664 1009.93 189.381 1010.11 189.193C1010.32 188.987 1010.61 188.885 1010.99 188.885H1015.95C1018.88 188.885 1021.14 189.655 1022.73 191.197C1024.32 192.739 1025.12 194.983 1025.12 197.929C1025.12 199.403 1024.92 200.705 1024.5 201.835C1024.11 202.949 1023.52 203.891 1022.73 204.662C1021.94 205.433 1020.98 206.015 1019.85 206.409C1018.72 206.803 1017.42 207 1015.95 207H1010.99ZM1011.94 205.201H1015.79C1016.99 205.201 1018.03 205.047 1018.9 204.739C1019.79 204.43 1020.53 203.976 1021.11 203.377C1021.71 202.777 1022.16 202.024 1022.45 201.116C1022.74 200.191 1022.89 199.129 1022.89 197.929C1022.89 195.514 1022.29 193.707 1021.11 192.508C1019.93 191.291 1018.16 190.683 1015.79 190.683H1011.94V205.201ZM1028.22 207.18C1027.94 207.18 1027.72 207.12 1027.55 207C1027.39 206.863 1027.3 206.692 1027.27 206.486C1027.25 206.263 1027.3 206.015 1027.42 205.741L1034.49 189.655C1034.64 189.313 1034.82 189.073 1035.03 188.936C1035.25 188.782 1035.49 188.705 1035.75 188.705C1036 188.705 1036.23 188.782 1036.44 188.936C1036.66 189.073 1036.84 189.313 1036.98 189.655L1044.07 205.741C1044.21 206.015 1044.26 206.263 1044.23 206.486C1044.21 206.709 1044.12 206.88 1043.97 207C1043.81 207.12 1043.6 207.18 1043.33 207.18C1043.02 207.18 1042.77 207.103 1042.58 206.949C1042.39 206.777 1042.24 206.537 1042.12 206.229L1040.22 201.835L1041.24 202.375H1030.2L1031.25 201.835L1029.37 206.229C1029.22 206.555 1029.06 206.794 1028.88 206.949C1028.71 207.103 1028.49 207.18 1028.22 207.18ZM1035.72 191.351L1031.58 201.09L1030.97 200.602H1040.47L1039.91 201.09L1035.77 191.351H1035.72ZM1048.77 209.441C1048.6 209.664 1048.42 209.792 1048.23 209.827C1048.05 209.861 1047.88 209.827 1047.75 209.724C1047.61 209.621 1047.53 209.475 1047.52 209.287C1047.52 209.098 1047.6 208.893 1047.77 208.67C1048.05 208.31 1048.23 207.942 1048.34 207.565C1048.44 207.206 1048.49 206.872 1048.49 206.563L1048.59 207.103C1048.15 207.103 1047.79 206.974 1047.52 206.717C1047.26 206.443 1047.13 206.101 1047.13 205.69C1047.13 205.278 1047.25 204.944 1047.49 204.687C1047.75 204.413 1048.08 204.276 1048.49 204.276C1048.94 204.276 1049.29 204.43 1049.55 204.739C1049.8 205.03 1049.93 205.458 1049.93 206.024C1049.93 206.383 1049.9 206.752 1049.83 207.128C1049.76 207.522 1049.64 207.916 1049.47 208.31C1049.3 208.704 1049.07 209.081 1048.77 209.441ZM1067.44 207.231C1066.24 207.231 1065.19 207.077 1064.28 206.769C1063.39 206.443 1062.63 205.972 1062.02 205.355C1061.4 204.722 1060.94 203.942 1060.63 203.017C1060.32 202.092 1060.17 201.03 1060.17 199.831V189.784C1060.17 189.424 1060.25 189.159 1060.42 188.987C1060.61 188.799 1060.88 188.705 1061.22 188.705C1061.56 188.705 1061.82 188.799 1061.99 188.987C1062.18 189.159 1062.27 189.424 1062.27 189.784V199.728C1062.27 201.612 1062.71 203.026 1063.58 203.968C1064.46 204.893 1065.74 205.355 1067.44 205.355C1069.13 205.355 1070.41 204.893 1071.27 203.968C1072.12 203.026 1072.55 201.612 1072.55 199.728V189.784C1072.55 189.424 1072.65 189.159 1072.83 188.987C1073.02 188.799 1073.29 188.705 1073.63 188.705C1073.96 188.705 1074.21 188.799 1074.38 188.987C1074.56 189.159 1074.66 189.424 1074.66 189.784V199.831C1074.66 201.424 1074.38 202.777 1073.84 203.891C1073.31 205.004 1072.5 205.844 1071.42 206.409C1070.34 206.957 1069.01 207.231 1067.44 207.231ZM1079.21 207.103C1078.78 207.103 1078.44 206.974 1078.18 206.717C1077.92 206.443 1077.79 206.101 1077.79 205.69C1077.79 205.278 1077.92 204.944 1078.18 204.687C1078.44 204.413 1078.78 204.276 1079.21 204.276C1079.64 204.276 1079.97 204.413 1080.21 204.687C1080.47 204.944 1080.59 205.278 1080.59 205.69C1080.59 206.101 1080.47 206.443 1080.21 206.717C1079.97 206.974 1079.64 207.103 1079.21 207.103ZM1085.39 207.18C1085.05 207.18 1084.78 207.086 1084.59 206.897C1084.42 206.692 1084.33 206.418 1084.33 206.075V189.964C1084.33 189.604 1084.43 189.338 1084.62 189.167C1084.81 188.979 1085.07 188.885 1085.41 188.885H1091.5C1093.44 188.885 1094.93 189.364 1095.97 190.323C1097.02 191.266 1097.54 192.602 1097.54 194.332C1097.54 196.045 1097.02 197.381 1095.97 198.341C1094.93 199.3 1093.44 199.78 1091.5 199.78H1086.44V206.075C1086.44 206.418 1086.36 206.692 1086.18 206.897C1086.01 207.086 1085.75 207.18 1085.39 207.18ZM1086.44 198.006H1091.25C1092.63 198.006 1093.68 197.698 1094.38 197.081C1095.1 196.448 1095.46 195.531 1095.46 194.332C1095.46 193.116 1095.1 192.199 1094.38 191.583C1093.68 190.949 1092.63 190.632 1091.25 190.632H1086.44V198.006ZM1100.01 207.103C1099.58 207.103 1099.24 206.974 1098.98 206.717C1098.73 206.443 1098.6 206.101 1098.6 205.69C1098.6 205.278 1098.73 204.944 1098.98 204.687C1099.24 204.413 1099.58 204.276 1100.01 204.276C1100.44 204.276 1100.77 204.413 1101.01 204.687C1101.27 204.944 1101.4 205.278 1101.4 205.69C1101.4 206.101 1101.27 206.443 1101.01 206.717C1100.77 206.974 1100.44 207.103 1100.01 207.103ZM1112.84 207C1112.46 207 1112.18 206.914 1111.99 206.743C1111.82 206.555 1111.74 206.306 1111.74 205.998C1111.74 205.809 1111.78 205.63 1111.86 205.458C1111.97 205.27 1112.1 205.081 1112.28 204.893L1118.03 198.726C1118.91 197.784 1119.53 196.919 1119.91 196.131C1120.3 195.326 1120.5 194.512 1120.5 193.69C1120.5 192.662 1120.18 191.882 1119.55 191.351C1118.93 190.803 1118.02 190.529 1116.82 190.529C1116.05 190.529 1115.32 190.649 1114.64 190.889C1113.95 191.129 1113.3 191.497 1112.66 191.994C1112.44 192.165 1112.23 192.242 1112.04 192.225C1111.87 192.208 1111.72 192.139 1111.58 192.019C1111.44 191.899 1111.35 191.745 1111.3 191.557C1111.25 191.368 1111.25 191.18 1111.3 190.992C1111.37 190.803 1111.5 190.632 1111.71 190.478C1112.38 189.929 1113.18 189.493 1114.13 189.167C1115.07 188.825 1116.03 188.653 1117 188.653C1118.22 188.653 1119.25 188.842 1120.09 189.219C1120.93 189.595 1121.56 190.152 1121.99 190.889C1122.42 191.608 1122.63 192.49 1122.63 193.535C1122.63 194.255 1122.51 194.966 1122.27 195.668C1122.05 196.353 1121.7 197.056 1121.22 197.775C1120.76 198.495 1120.15 199.24 1119.39 200.011L1113.92 205.792V205.201H1122.58C1122.91 205.201 1123.15 205.278 1123.3 205.433C1123.47 205.57 1123.56 205.784 1123.56 206.075C1123.56 206.383 1123.47 206.615 1123.3 206.769C1123.15 206.923 1122.91 207 1122.58 207H1112.84ZM1132.64 207.231C1130.57 207.231 1128.99 206.435 1127.91 204.842C1126.84 203.248 1126.3 200.944 1126.3 197.929C1126.3 195.908 1126.54 194.212 1127.02 192.842C1127.49 191.454 1128.21 190.409 1129.15 189.707C1130.11 189.004 1131.27 188.653 1132.64 188.653C1134.73 188.653 1136.31 189.441 1137.37 191.017C1138.45 192.576 1138.99 194.872 1138.99 197.904C1138.99 199.925 1138.75 201.63 1138.27 203.017C1137.79 204.405 1137.08 205.458 1136.14 206.178C1135.19 206.88 1134.03 207.231 1132.64 207.231ZM1132.64 205.407C1134.08 205.407 1135.14 204.799 1135.83 203.582C1136.53 202.349 1136.88 200.456 1136.88 197.904C1136.88 195.334 1136.53 193.458 1135.83 192.276C1135.14 191.077 1134.08 190.478 1132.64 190.478C1131.22 190.478 1130.16 191.077 1129.46 192.276C1128.75 193.475 1128.4 195.351 1128.4 197.904C1128.4 200.456 1128.75 202.349 1129.46 203.582C1130.16 204.799 1131.22 205.407 1132.64 205.407ZM1144.32 207C1144.02 207 1143.78 206.923 1143.6 206.769C1143.43 206.597 1143.35 206.366 1143.35 206.075C1143.35 205.784 1143.43 205.57 1143.6 205.433C1143.78 205.278 1144.02 205.201 1144.32 205.201H1147.66V190.632H1148.77L1145.04 193.099C1144.82 193.219 1144.61 193.27 1144.4 193.253C1144.21 193.236 1144.05 193.167 1143.91 193.047C1143.79 192.91 1143.71 192.756 1143.66 192.585C1143.6 192.396 1143.61 192.208 1143.68 192.019C1143.75 191.814 1143.9 191.643 1144.12 191.505L1147.66 189.167C1147.89 189.03 1148.1 188.919 1148.31 188.833C1148.51 188.747 1148.72 188.705 1148.92 188.705C1149.16 188.705 1149.36 188.782 1149.51 188.936C1149.69 189.073 1149.77 189.296 1149.77 189.604V205.201H1152.85C1153.16 205.201 1153.4 205.278 1153.57 205.433C1153.75 205.57 1153.83 205.784 1153.83 206.075C1153.83 206.383 1153.75 206.615 1153.57 206.769C1153.4 206.923 1153.16 207 1152.85 207H1144.32ZM1163.25 207.231C1162.26 207.231 1161.26 207.086 1160.25 206.794C1159.25 206.503 1158.39 206.075 1157.65 205.51C1157.43 205.355 1157.28 205.184 1157.21 204.996C1157.14 204.79 1157.13 204.602 1157.16 204.43C1157.21 204.242 1157.31 204.088 1157.44 203.968C1157.58 203.831 1157.74 203.754 1157.93 203.737C1158.14 203.72 1158.36 203.788 1158.6 203.942C1159.35 204.439 1160.11 204.799 1160.86 205.021C1161.62 205.244 1162.4 205.355 1163.2 205.355C1164.07 205.355 1164.81 205.227 1165.41 204.97C1166.01 204.713 1166.46 204.336 1166.77 203.839C1167.08 203.326 1167.23 202.7 1167.23 201.964C1167.23 200.902 1166.88 200.096 1166.18 199.548C1165.48 199 1164.46 198.726 1163.12 198.726H1161.3C1160.97 198.726 1160.72 198.649 1160.55 198.495C1160.38 198.323 1160.3 198.092 1160.3 197.801C1160.3 197.527 1160.38 197.313 1160.55 197.159C1160.72 196.987 1160.97 196.902 1161.3 196.902H1162.94C1163.73 196.902 1164.4 196.765 1164.95 196.49C1165.51 196.216 1165.95 195.831 1166.26 195.334C1166.57 194.82 1166.72 194.204 1166.72 193.484C1166.72 192.525 1166.41 191.797 1165.8 191.3C1165.18 190.786 1164.29 190.529 1163.12 190.529C1162.35 190.529 1161.62 190.64 1160.94 190.863C1160.25 191.086 1159.58 191.463 1158.91 191.994C1158.7 192.148 1158.5 192.225 1158.29 192.225C1158.1 192.208 1157.94 192.148 1157.8 192.045C1157.68 191.925 1157.59 191.771 1157.52 191.583C1157.47 191.394 1157.48 191.206 1157.55 191.017C1157.62 190.812 1157.76 190.623 1157.98 190.452C1158.67 189.87 1159.47 189.424 1160.4 189.116C1161.32 188.807 1162.28 188.653 1163.25 188.653C1164.42 188.653 1165.41 188.842 1166.23 189.219C1167.07 189.578 1167.71 190.109 1168.16 190.812C1168.6 191.497 1168.83 192.328 1168.83 193.304C1168.83 194.041 1168.68 194.717 1168.39 195.334C1168.12 195.934 1167.72 196.448 1167.21 196.876C1166.71 197.304 1166.1 197.612 1165.38 197.801V197.518C1166.63 197.724 1167.6 198.238 1168.29 199.06C1168.99 199.865 1169.34 200.884 1169.34 202.118C1169.34 203.163 1169.09 204.071 1168.6 204.842C1168.12 205.595 1167.42 206.186 1166.51 206.615C1165.61 207.026 1164.52 207.231 1163.25 207.231ZM1178.86 207.231C1176.79 207.231 1175.22 206.435 1174.14 204.842C1173.06 203.248 1172.52 200.944 1172.52 197.929C1172.52 195.908 1172.76 194.212 1173.24 192.842C1173.72 191.454 1174.43 190.409 1175.37 189.707C1176.33 189.004 1177.49 188.653 1178.86 188.653C1180.95 188.653 1182.53 189.441 1183.59 191.017C1184.67 192.576 1185.21 194.872 1185.21 197.904C1185.21 199.925 1184.97 201.63 1184.49 203.017C1184.01 204.405 1183.3 205.458 1182.36 206.178C1181.42 206.88 1180.25 207.231 1178.86 207.231ZM1178.86 205.407C1180.3 205.407 1181.37 204.799 1182.05 203.582C1182.75 202.349 1183.1 200.456 1183.1 197.904C1183.1 195.334 1182.75 193.458 1182.05 192.276C1181.37 191.077 1180.3 190.478 1178.86 190.478C1177.44 190.478 1176.38 191.077 1175.68 192.276C1174.98 193.475 1174.62 195.351 1174.62 197.904C1174.62 200.456 1174.98 202.349 1175.68 203.582C1176.38 204.799 1177.44 205.407 1178.86 205.407ZM1190.55 207C1190.24 207 1190 206.923 1189.83 206.769C1189.66 206.597 1189.57 206.366 1189.57 206.075C1189.57 205.784 1189.66 205.57 1189.83 205.433C1190 205.278 1190.24 205.201 1190.55 205.201H1193.89V190.632H1194.99L1191.27 193.099C1191.04 193.219 1190.83 193.27 1190.62 193.253C1190.43 193.236 1190.27 193.167 1190.13 193.047C1190.02 192.91 1189.93 192.756 1189.88 192.585C1189.83 192.396 1189.84 192.208 1189.9 192.019C1189.97 191.814 1190.12 191.643 1190.34 191.505L1193.89 189.167C1194.11 189.03 1194.32 188.919 1194.53 188.833C1194.73 188.747 1194.94 188.705 1195.15 188.705C1195.39 188.705 1195.58 188.782 1195.74 188.936C1195.91 189.073 1195.99 189.296 1195.99 189.604V205.201H1199.08C1199.39 205.201 1199.63 205.278 1199.8 205.433C1199.97 205.57 1200.05 205.784 1200.05 206.075C1200.05 206.383 1199.97 206.615 1199.8 206.769C1199.63 206.923 1199.39 207 1199.08 207H1190.55Z" fill="#0D1F28"/>
<path d="M0 12V0H1414V130H1128L1067 70L821 71L760 12H0Z" fill="#126198"/>
<path d="M984.5 88H950L988.5 129H1024L984.5 88Z" fill="#1C8ADB"/>
<path d="M1047.5 88H1013L1051.5 129H1087L1047.5 88Z" fill="#1C8ADB"/>
</svg>
