<svg width="358" height="80" viewBox="0 0 358 80" fill="none" xmlns="http://www.w3.org/2000/svg">
<path d="M80 40C80 62.0914 62.0914 80 40 80C17.9086 80 0 62.0914 0 40C0 17.9086 17.9086 0 40 0C62.0914 0 80 17.9086 80 40ZM8 40C8 57.6731 22.3269 72 40 72C57.6731 72 72 57.6731 72 40C72 22.3269 57.6731 8 40 8C22.3269 8 8 22.3269 8 40Z" fill="#135E95"/>
<path d="M40.0001 13.4579C39.983 13.4748 39.9644 13.4965 39.9411 13.5212C39.059 14.4816 32.9498 20.4697 17.0094 21.1215C17.0087 21.7387 17.0143 22.3114 17.0245 22.9131C17.0296 23.2147 17.0347 23.5148 17.0429 23.8119C17.0495 24.1058 17.0577 24.3981 17.0676 24.6889L17.0675 24.7045C17.0772 24.9968 17.087 25.2861 17.0998 25.5754C17.1112 25.8647 17.1241 26.1525 17.1385 26.4402C17.1514 26.7248 17.1674 27.0064 17.1834 27.2879L17.1833 27.3019C17.2008 27.582 17.2168 27.8605 17.236 28.1374C17.2534 28.4158 17.2741 28.6927 17.2948 28.9696C17.3154 29.2452 17.3361 29.519 17.3599 29.7913C17.382 30.062 17.4058 30.3328 17.4311 30.6021C17.449 30.7986 17.4667 30.9935 17.4862 31.1886C17.5011 31.3494 17.5175 31.5103 17.5354 31.6697C17.5489 31.8059 17.5639 31.9421 17.5788 32.0782C17.5864 32.1495 17.5938 32.2206 17.6028 32.2918C17.6282 32.5193 17.6537 32.7451 17.6807 32.9711C17.7092 33.2125 17.7393 33.4539 17.7693 33.6937C17.7754 33.7401 17.7814 33.7851 17.7875 33.8315C17.8116 34.011 17.8341 34.189 17.8582 34.3655C17.8778 34.5062 17.8958 34.6454 17.917 34.7847C17.9803 35.2335 18.0468 35.6745 18.1163 36.1126C18.1481 36.3138 18.1798 36.5135 18.2131 36.7116C18.2525 36.9468 18.2919 37.179 18.3328 37.4096C18.3358 37.4282 18.3388 37.4452 18.3418 37.4637C18.3828 37.6897 18.4222 37.9142 18.4647 38.1371C18.4981 38.3228 18.533 38.507 18.5694 38.6897C18.5982 38.8476 18.6302 39.0038 18.6621 39.1587C18.6728 39.2129 18.6833 39.2686 18.694 39.3227C18.7274 39.4852 18.7608 39.6463 18.7942 39.8073C18.8308 39.9807 18.8672 40.1509 18.9038 40.3212C18.9448 40.5054 18.986 40.6881 19.027 40.8693C19.0742 41.0828 19.1229 41.2934 19.1733 41.5039C19.1778 41.5224 19.1823 41.5426 19.1869 41.5612C19.2356 41.7687 19.286 41.973 19.3362 42.1774C19.3896 42.3925 19.4429 42.6062 19.4979 42.8167C19.5528 43.0289 19.6077 43.2395 19.6642 43.447C19.719 43.6559 19.7756 43.8634 19.8336 44.0677C19.8886 44.2644 19.9435 44.458 20.0001 44.6515C20.0061 44.6748 20.0139 44.6979 20.0199 44.7212C20.075 44.91 20.1299 45.0959 20.1865 45.2817C20.2461 45.4784 20.3057 45.6735 20.3669 45.8687C20.3684 45.8733 20.37 45.8779 20.3714 45.884C20.4326 46.0761 20.4923 46.2681 20.555 46.4586C20.6161 46.6491 20.6788 46.8396 20.7432 47.0285C20.7446 47.0332 20.7462 47.0378 20.7476 47.044C20.8105 47.2284 20.8732 47.4111 20.936 47.5939C20.9375 47.5969 20.939 47.5999 20.939 47.6031C21.0033 47.7889 21.0692 47.9717 21.135 48.1546C21.2008 48.3387 21.2682 48.5215 21.3356 48.7027C21.4183 48.9258 21.5011 49.1458 21.5854 49.3641C21.639 49.5004 21.6911 49.6367 21.7447 49.7715C21.8122 49.9419 21.8796 50.1092 21.947 50.275L21.9746 50.34C22.0375 50.4964 22.1035 50.6529 22.1679 50.8064C22.2384 50.9767 22.3105 51.144 22.384 51.3113C22.5329 51.6553 22.6832 51.993 22.8367 52.3245C22.9058 52.4765 22.9764 52.6251 23.047 52.774C23.1207 52.9303 23.1944 53.0839 23.2696 53.2372C23.3233 53.3503 23.3786 53.4619 23.4339 53.5734C23.4876 53.6851 23.5429 53.7934 23.5997 53.9036C23.6427 53.9902 23.6872 54.0755 23.7318 54.1623C23.8086 54.3126 23.8854 54.4615 23.9622 54.6086C24.1189 54.903 24.2771 55.193 24.4354 55.4781C24.5137 55.6206 24.5937 55.7617 24.6736 55.9012C24.7535 56.0408 24.8334 56.1803 24.9134 56.3166C25.1332 56.6918 25.3546 57.0576 25.5791 57.4142C25.6453 57.5211 25.713 57.6266 25.7806 57.7321C25.8775 57.8839 25.9744 58.0344 26.0729 58.1832C26.1497 58.2994 26.2267 58.4158 26.3052 58.5305C26.7251 59.1538 27.1499 59.7479 27.5763 60.3109C27.661 60.4225 27.7441 60.5311 27.8287 60.6396C28.0289 60.8972 28.229 61.1484 28.4308 61.395C28.5001 61.482 28.5724 61.5674 28.6433 61.6527C28.7095 61.7319 28.7757 61.811 28.842 61.8885C28.9189 61.9801 28.996 62.0701 29.0714 62.1586C29.2486 62.3618 29.4242 62.5604 29.6013 62.7544C29.6615 62.8227 29.723 62.8894 29.7831 62.9546C29.9742 63.1624 30.1653 63.3643 30.3563 63.5615C30.4242 63.633 30.492 63.7028 30.5598 63.7711C31.0066 64.2258 31.4476 64.6497 31.8838 65.0458C31.9639 65.1188 32.0457 65.1918 32.1258 65.2632C32.5452 65.6359 32.9569 65.984 33.3594 66.3071C33.4875 66.4096 33.6154 66.5108 33.742 66.6086C33.7528 66.6164 33.7635 66.624 33.7744 66.6334C33.85 66.691 33.9255 66.75 34.001 66.8059C34.453 67.1494 34.8911 67.4604 35.3109 67.742C35.3803 67.7886 35.4497 67.8353 35.5192 67.8803C35.6565 67.9723 35.7923 68.0593 35.9266 68.1433C36.0547 68.2241 36.1797 68.3019 36.3015 68.3767C36.3078 68.3796 36.3139 68.3844 36.3201 68.3875C36.442 68.4607 36.5608 68.5322 36.6767 68.6007C36.8772 68.7174 37.0717 68.8281 37.2586 68.9308C37.3111 68.9588 37.3621 68.9869 37.4145 69.0149C37.754 69.1986 38.0691 69.3574 38.3563 69.4948C38.4428 69.5353 38.5277 69.5759 38.6079 69.6132C38.8473 69.7224 39.0635 69.8159 39.252 69.8925C39.3091 69.9174 39.3631 69.9392 39.4157 69.9595C39.5316 70.0048 39.6334 70.0453 39.723 70.0782C39.7431 70.0861 39.7632 70.0923 39.7817 70.0985C39.8018 70.1064 39.8204 70.1141 39.8389 70.1205C40.0459 70.1954 40.1572 70.2268 40.1572 70.2268C41.0948 69.7275 41.9954 69.2001 42.8589 68.6449C48.3133 65.1413 52.3114 60.5775 55.2329 55.5905C55.2406 55.5765 55.2484 55.5642 55.2546 55.5503C61.5397 44.7985 62.8173 32.0932 62.8614 23.8228C62.8648 22.9072 62.8555 22.0455 62.8351 21.2473C46.5552 20.4455 40.6332 14.1825 40.0001 13.4579Z" fill="#135E95"/>
<path d="M39.9677 13.4924C39.9794 13.4795 39.99 13.4679 40.0001 13.4579L40.0001 42.9906H60.4055C59.2582 47.2275 57.6072 51.5258 55.2546 55.5503C55.2503 55.5601 55.2451 55.5691 55.2398 55.5784C55.2375 55.5823 55.2352 55.5863 55.2329 55.5905C52.3114 60.5775 48.3133 65.1413 42.8589 68.6449C41.9954 69.2001 41.0948 69.7275 40.1572 70.2268C40.1572 70.2268 40.1031 70.2115 40 70.1769L40.0001 42.9906H19.543C19.528 42.9328 19.5129 42.8748 19.4979 42.8167C19.4429 42.6062 19.3896 42.3925 19.3362 42.1774L19.3284 42.1455C19.2807 41.9517 19.2331 41.7579 19.1869 41.5612C19.1843 41.5505 19.1817 41.5394 19.1791 41.5283C19.1771 41.5201 19.1752 41.5118 19.1733 41.5039C19.1229 41.2934 19.0742 41.0828 19.027 40.8693C18.986 40.6881 18.9448 40.5054 18.9038 40.3212C18.8672 40.1509 18.8308 39.9807 18.7942 39.8073C18.7608 39.6463 18.7274 39.4852 18.694 39.3227C18.6886 39.2956 18.6834 39.2682 18.6781 39.2407C18.6728 39.2133 18.6674 39.1858 18.6621 39.1587C18.6302 39.0038 18.5982 38.8476 18.5694 38.6897C18.533 38.507 18.4981 38.3228 18.4647 38.1371C18.4337 37.9742 18.4043 37.8106 18.3747 37.6461C18.3638 37.5855 18.3529 37.5246 18.3418 37.4637C18.3403 37.4544 18.3388 37.4456 18.3373 37.4367C18.3358 37.4278 18.3343 37.4189 18.3328 37.4096C18.2919 37.179 18.2525 36.9468 18.2131 36.7116C18.1798 36.5135 18.1481 36.3138 18.1163 36.1126C18.0468 35.6745 17.9803 35.2335 17.917 34.7847C17.9025 34.6894 17.8895 34.5942 17.8765 34.4984C17.8704 34.4542 17.8644 34.4099 17.8582 34.3655C17.8447 34.2667 17.8318 34.1675 17.8187 34.0678C17.8084 33.9893 17.7981 33.9106 17.7875 33.8315L17.7693 33.6937C17.7393 33.4539 17.7092 33.2125 17.6807 32.9711C17.6537 32.7451 17.6282 32.5193 17.6028 32.2918C17.5944 32.2259 17.5875 32.1601 17.5805 32.0941L17.5788 32.0782L17.5785 32.0756C17.5637 31.9404 17.5488 31.8049 17.5354 31.6697C17.5175 31.5103 17.5011 31.3494 17.4862 31.1886C17.4668 30.9937 17.449 30.7989 17.4312 30.6027L17.4311 30.6021C17.4058 30.3328 17.382 30.062 17.3599 29.7913C17.3361 29.519 17.3154 29.2452 17.2948 28.9696C17.2741 28.6927 17.2534 28.4158 17.236 28.1374C17.2228 27.9467 17.2111 27.7552 17.1993 27.563C17.194 27.4761 17.1887 27.3891 17.1833 27.3019L17.1834 27.2879C17.1674 27.0064 17.1514 26.7248 17.1385 26.4402C17.1241 26.1525 17.1112 25.8647 17.0998 25.5754C17.087 25.2861 17.0772 24.9968 17.0675 24.7045L17.0676 24.6889C17.0577 24.3981 17.0495 24.1058 17.0429 23.8119C17.0347 23.5148 17.0296 23.2147 17.0245 22.9131C17.0143 22.3114 17.0087 21.7387 17.0094 21.1215C32.9498 20.4697 39.059 14.4816 39.9411 13.5212C39.9506 13.5111 39.9595 13.5014 39.9677 13.4924Z" fill="#1C8ADB"/>
<path d="M103.18 30.46C103.18 32.34 102.587 33.7733 101.4 34.76C100.213 35.7467 98.5267 36.24 96.34 36.24C94.1533 36.24 92.46 35.7467 91.26 34.76C90.0733 33.7733 89.48 32.34 89.48 30.46V22.24H93.9V30.4C93.9 31.1733 94.1067 31.7933 94.52 32.26C94.9333 32.7133 95.5333 32.94 96.32 32.94C97.1067 32.94 97.7067 32.7067 98.12 32.24C98.5467 31.7733 98.76 31.16 98.76 30.4V22.24H103.18V30.46ZM106.14 22.24H110.56V32.48H117.62V36H106.14V22.24ZM126.384 25.76V36H121.964V25.76H117.444V22.24H130.884V25.76H126.384ZM145.958 26.46C145.958 27.3 145.731 28.06 145.278 28.74C144.825 29.42 144.165 29.92 143.298 30.24L146.358 36H141.398L138.958 30.98H137.318V36H132.898V22.24H141.318C142.305 22.24 143.145 22.4333 143.838 22.82C144.545 23.1933 145.071 23.7067 145.418 24.36C145.778 25 145.958 25.7 145.958 26.46ZM141.458 26.64C141.458 26.28 141.338 25.98 141.098 25.74C140.858 25.5 140.565 25.38 140.218 25.38H137.318V27.92H140.218C140.565 27.92 140.858 27.8 141.098 27.56C141.338 27.3067 141.458 27 141.458 26.64ZM157.684 36L157.104 34.06H152.284L151.704 36H147.184L152.204 22.24H157.344L162.364 36H157.684ZM153.204 30.98H156.184L154.744 26.08H154.664L153.204 30.98ZM169.811 22C171.571 22 173.017 22.36 174.151 23.08C175.284 23.7867 175.864 24.84 175.891 26.24V26.48H171.751V26.4C171.751 26 171.604 25.6667 171.311 25.4C171.017 25.1333 170.571 25 169.971 25C169.384 25 168.931 25.0867 168.611 25.26C168.304 25.4333 168.151 25.6467 168.151 25.9C168.151 26.26 168.364 26.5267 168.791 26.7C169.217 26.8733 169.904 27.0533 170.851 27.24C171.957 27.4667 172.864 27.7067 173.571 27.96C174.291 28.2 174.917 28.6 175.451 29.16C175.984 29.72 176.257 30.48 176.271 31.44C176.271 33.0667 175.717 34.2733 174.611 35.06C173.517 35.8467 172.051 36.24 170.211 36.24C168.064 36.24 166.391 35.88 165.191 35.16C164.004 34.44 163.411 33.1667 163.411 31.34H167.591C167.591 32.0333 167.771 32.5 168.131 32.74C168.491 32.9667 169.051 33.08 169.811 33.08C170.371 33.08 170.831 33.02 171.191 32.9C171.564 32.78 171.751 32.5333 171.751 32.16C171.751 31.8267 171.544 31.58 171.131 31.42C170.731 31.2467 170.071 31.0667 169.151 30.88C168.031 30.64 167.104 30.3933 166.371 30.14C165.637 29.8733 164.997 29.44 164.451 28.84C163.904 28.24 163.631 27.4267 163.631 26.4C163.631 24.8933 164.211 23.7867 165.371 23.08C166.544 22.36 168.024 22 169.811 22ZM187.744 36V30.78H182.884V36H178.464V22.24H182.884V27.26H187.744V22.24H192.164V36H187.744ZM195.325 36V22.24H199.745V36H195.325ZM202.898 22.24H214.798V25.54H207.318V27.44H213.718V30.6H207.318V32.7H214.938V36H202.898V22.24ZM217.332 22.24H221.752V32.48H228.812V36H217.332V22.24ZM236.631 22.24C241.445 22.24 243.851 24.5333 243.851 29.12C243.851 33.7067 241.445 36 236.631 36H230.671V22.24H236.631ZM235.091 32.7H236.551C238.405 32.7 239.331 31.7067 239.331 29.72V28.52C239.331 26.5333 238.405 25.54 236.551 25.54H235.091V32.7ZM97.4 47.76V58H92.98V47.76H88.46V44.24H101.9V47.76H97.4ZM103.914 44.24H115.814V47.54H108.334V49.44H114.734V52.6H108.334V54.7H115.954V58H103.914V44.24ZM124.907 44C126.947 44 128.561 44.5133 129.747 45.54C130.934 46.5533 131.527 48.0067 131.527 49.9H127.307C127.307 49.1 127.094 48.4667 126.667 48C126.254 47.5333 125.661 47.3 124.887 47.3C123.994 47.3 123.334 47.58 122.907 48.14C122.494 48.7 122.287 49.48 122.287 50.48V51.76C122.287 52.7467 122.494 53.5267 122.907 54.1C123.334 54.66 123.981 54.94 124.847 54.94C125.701 54.94 126.347 54.72 126.787 54.28C127.227 53.84 127.447 53.22 127.447 52.42H131.527C131.527 54.3 130.947 55.74 129.787 56.74C128.641 57.74 127.014 58.24 124.907 58.24C122.561 58.24 120.781 57.64 119.567 56.44C118.367 55.24 117.767 53.4667 117.767 51.12C117.767 48.7733 118.367 47 119.567 45.8C120.781 44.6 122.561 44 124.907 44ZM143.194 58V52.78H138.334V58H133.914V44.24H138.334V49.26H143.194V44.24H147.614V58H143.194ZM160.414 58L154.634 51.32V58H150.574V44.24H154.434L160.214 51.02V44.24H164.274V58H160.414ZM174.074 44C176.447 44 178.281 44.6067 179.574 45.82C180.867 47.0333 181.514 48.8 181.514 51.12C181.514 53.44 180.867 55.2067 179.574 56.42C178.281 57.6333 176.447 58.24 174.074 58.24C171.701 58.24 169.867 57.64 168.574 56.44C167.294 55.2267 166.654 53.4533 166.654 51.12C166.654 48.7867 167.294 47.02 168.574 45.82C169.867 44.6067 171.701 44 174.074 44ZM174.074 47.3C173.127 47.3 172.407 47.5867 171.914 48.16C171.421 48.7333 171.174 49.5067 171.174 50.48V51.76C171.174 52.7333 171.421 53.5067 171.914 54.08C172.407 54.6533 173.127 54.94 174.074 54.94C175.021 54.94 175.741 54.6533 176.234 54.08C176.741 53.5067 176.994 52.7333 176.994 51.76V50.48C176.994 49.5067 176.741 48.7333 176.234 48.16C175.741 47.5867 175.021 47.3 174.074 47.3ZM183.894 44.24H188.314V54.48H195.374V58H183.894V44.24ZM203.742 44C206.115 44 207.949 44.6067 209.242 45.82C210.535 47.0333 211.182 48.8 211.182 51.12C211.182 53.44 210.535 55.2067 209.242 56.42C207.949 57.6333 206.115 58.24 203.742 58.24C201.369 58.24 199.535 57.64 198.242 56.44C196.962 55.2267 196.322 53.4533 196.322 51.12C196.322 48.7867 196.962 47.02 198.242 45.82C199.535 44.6067 201.369 44 203.742 44ZM203.742 47.3C202.795 47.3 202.075 47.5867 201.582 48.16C201.089 48.7333 200.842 49.5067 200.842 50.48V51.76C200.842 52.7333 201.089 53.5067 201.582 54.08C202.075 54.6533 202.795 54.94 203.742 54.94C204.689 54.94 205.409 54.6533 205.902 54.08C206.409 53.5067 206.662 52.7333 206.662 51.76V50.48C206.662 49.5067 206.409 48.7333 205.902 48.16C205.409 47.5867 204.689 47.3 203.742 47.3ZM220.482 44C221.802 44 222.989 44.2 224.042 44.6C225.095 45 225.929 45.5933 226.542 46.38C227.169 47.1533 227.482 48.1 227.482 49.22H223.262C223.262 48.6467 223.009 48.1867 222.502 47.84C221.995 47.48 221.382 47.3 220.662 47.3C219.622 47.3 218.835 47.58 218.302 48.14C217.769 48.6867 217.502 49.4667 217.502 50.48V51.76C217.502 52.7733 217.769 53.56 218.302 54.12C218.835 54.6667 219.622 54.94 220.662 54.94C221.382 54.94 221.995 54.7733 222.502 54.44C223.009 54.0933 223.262 53.6533 223.262 53.12H220.142V50.32H227.482V58H225.202L224.762 56.64C223.509 57.7067 221.869 58.24 219.842 58.24C217.562 58.24 215.849 57.6467 214.702 56.46C213.555 55.26 212.982 53.48 212.982 51.12C212.982 48.7867 213.629 47.02 214.922 45.82C216.229 44.6067 218.082 44 220.482 44ZM238.762 58H234.342V52.66L228.882 44.24H233.962L236.602 48.82H236.682L239.322 44.24H244.142L238.762 52.66V58ZM260.169 44.24C261.022 44.24 261.782 44.44 262.449 44.84C263.115 45.2267 263.635 45.7667 264.009 46.46C264.382 47.14 264.569 47.9067 264.569 48.76V49.02C264.569 49.8733 264.382 50.6467 264.009 51.34C263.635 52.0333 263.115 52.58 262.449 52.98C261.782 53.3667 261.022 53.56 260.169 53.56H256.869V58H252.449V44.24H260.169ZM256.869 50.34H258.689C259.155 50.34 259.502 50.22 259.729 49.98C259.969 49.74 260.089 49.4133 260.089 49V48.84C260.089 48.4133 259.969 48.0867 259.729 47.86C259.502 47.62 259.155 47.5 258.689 47.5H256.869V50.34ZM270.622 58L265.742 44.24H270.462L273.222 53.44H273.302L276.082 44.24H280.602L275.742 58H270.622ZM290.369 47.76V58H285.949V47.76H281.429V44.24H294.869V47.76H290.369ZM293.556 58V54.02H297.796V58H293.556ZM307.136 44.24H311.556V54.48H318.616V58H307.136V44.24ZM327.38 47.76V58H322.96V47.76H318.44V44.24H331.88V47.76H327.38ZM339.854 44.24C344.667 44.24 347.074 46.5333 347.074 51.12C347.074 55.7067 344.667 58 339.854 58H333.894V44.24H339.854ZM338.314 54.7H339.774C341.627 54.7 342.554 53.7067 342.554 51.72V50.52C342.554 48.5333 341.627 47.54 339.774 47.54H338.314V54.7ZM348.868 58V54.02H353.108V58H348.868Z" fill="#135E95"/>
</svg>
